%TF.GenerationSoftware,KiCad,Pcbnew,9.0.1*%
%TF.CreationDate,2025-05-28T17:40:13+05:30*%
%TF.ProjectId,3levelstepDownIter2,336c6576-656c-4737-9465-70446f776e49,rev?*%
%TF.SameCoordinates,Original*%
%TF.FileFunction,Copper,L2,Bot*%
%TF.FilePolarity,Positive*%
%FSLAX46Y46*%
G04 Gerber Fmt 4.6, Leading zero omitted, Abs format (unit mm)*
G04 Created by KiCad (PCBNEW 9.0.1) date 2025-05-28 17:40:13*
%MOMM*%
%LPD*%
G01*
G04 APERTURE LIST*
%TA.AperFunction,ComponentPad*%
%ADD10C,3.000000*%
%TD*%
%TA.AperFunction,ComponentPad*%
%ADD11R,3.000000X3.000000*%
%TD*%
%TA.AperFunction,ViaPad*%
%ADD12C,0.600000*%
%TD*%
%TA.AperFunction,Conductor*%
%ADD13C,1.400000*%
%TD*%
G04 APERTURE END LIST*
D10*
%TO.P,J4,2,Pin_2*%
%TO.N,GND*%
X82931000Y-70231000D03*
D11*
%TO.P,J4,1,Pin_1*%
%TO.N,Net-(J4-Pin_1)*%
X82931000Y-74111000D03*
%TD*%
%TO.P,J5,1,Pin_1*%
%TO.N,Net-(J5-Pin_1)*%
X157245000Y-88755000D03*
D10*
%TO.P,J5,2,Pin_2*%
%TO.N,GND*%
X157245000Y-92635000D03*
%TD*%
D11*
%TO.P,J1,1,Pin_1*%
%TO.N,Net-(J1-Pin_1)*%
X157245000Y-98915000D03*
D10*
%TO.P,J1,2,Pin_2*%
%TO.N,GND*%
X157245000Y-102795000D03*
%TD*%
D11*
%TO.P,J2,1,Pin_1*%
%TO.N,Net-(J2-Pin_1)*%
X119755000Y-63675000D03*
D10*
%TO.P,J2,2,Pin_2*%
%TO.N,GND*%
X123635000Y-63675000D03*
%TD*%
D11*
%TO.P,J3,1,Pin_1*%
%TO.N,Net-(J3-Pin_1)*%
X118775000Y-119380000D03*
D10*
%TO.P,J3,2,Pin_2*%
%TO.N,GND*%
X114895000Y-119380000D03*
%TD*%
D12*
%TO.N,GND*%
X93091000Y-100711000D03*
X123190000Y-115570000D03*
X155975000Y-83675000D03*
X127375000Y-68755000D03*
X93091000Y-105791000D03*
X149625000Y-84945000D03*
%TO.N,Net-(J1-Pin_1)*%
X107950000Y-82550000D03*
X93091000Y-85471000D03*
X131845000Y-96375000D03*
X107061000Y-77851000D03*
X129540000Y-81280000D03*
%TO.N,Net-(D3-K)*%
X94361000Y-108331000D03*
X101981000Y-112141000D03*
%TO.N,Net-(U5-FB)*%
X140735000Y-84945000D03*
X149164844Y-83344000D03*
%TD*%
D13*
%TO.N,GND*%
X114895000Y-119380000D02*
X114895000Y-121501320D01*
X82931000Y-70231000D02*
X118001000Y-70231000D01*
X123190000Y-115570000D02*
X125730000Y-118110000D01*
X114895000Y-121501320D02*
X115174680Y-121781000D01*
X154705000Y-90025000D02*
X154844000Y-90025000D01*
X127375000Y-68755000D02*
X127375000Y-67415000D01*
X149625000Y-84945000D02*
X154705000Y-90025000D01*
X80530000Y-85015000D02*
X114895000Y-119380000D01*
X80530000Y-71710000D02*
X80530000Y-85015000D01*
X123635000Y-64597000D02*
X123635000Y-63675000D01*
X154844000Y-92355320D02*
X155123680Y-92635000D01*
X155975000Y-83675000D02*
X154844000Y-84806000D01*
X125730000Y-118110000D02*
X125730000Y-121781000D01*
X115174680Y-121781000D02*
X125730000Y-121781000D01*
X82009000Y-70231000D02*
X80530000Y-71710000D01*
X118001000Y-70231000D02*
X123635000Y-64597000D01*
X125730000Y-121781000D02*
X138259000Y-121781000D01*
X93091000Y-105791000D02*
X93091000Y-100711000D01*
X154844000Y-84806000D02*
X154844000Y-90025000D01*
X127375000Y-67415000D02*
X123635000Y-63675000D01*
X155123680Y-92635000D02*
X157245000Y-92635000D01*
X154844000Y-90025000D02*
X154844000Y-92355320D01*
X138259000Y-121781000D02*
X157245000Y-102795000D01*
X82931000Y-70231000D02*
X82009000Y-70231000D01*
%TO.N,Net-(J1-Pin_1)*%
X134385000Y-98915000D02*
X131845000Y-96375000D01*
X106680000Y-77851000D02*
X107061000Y-77851000D01*
X125050000Y-89580000D02*
X131845000Y-96375000D01*
X102870000Y-77851000D02*
X113321000Y-77851000D01*
X107950000Y-79121000D02*
X106680000Y-77851000D01*
X157245000Y-98915000D02*
X134385000Y-98915000D01*
X93091000Y-85471000D02*
X100711000Y-77851000D01*
X125050000Y-85770000D02*
X125050000Y-89580000D01*
X113321000Y-77851000D02*
X125050000Y-89580000D01*
X107950000Y-82550000D02*
X107950000Y-79121000D01*
X102870000Y-77851000D02*
X106680000Y-77851000D01*
X129540000Y-81280000D02*
X125050000Y-85770000D01*
X100711000Y-77851000D02*
X102870000Y-77851000D01*
%TO.N,Net-(D3-K)*%
X94361000Y-108331000D02*
X98171000Y-108331000D01*
X98171000Y-108331000D02*
X101981000Y-112141000D01*
%TO.N,Net-(U5-FB)*%
X149164844Y-83344000D02*
X142336000Y-83344000D01*
X142336000Y-83344000D02*
X140735000Y-84945000D01*
%TD*%
M02*
