%TF.GenerationSoftware,KiCad,Pcbnew,9.0.1*%
%TF.CreationDate,2025-05-28T17:40:13+05:30*%
%TF.ProjectId,3levelstepDownIter2,336c6576-656c-4737-9465-70446f776e49,rev?*%
%TF.SameCoordinates,Original*%
%TF.FileFunction,Legend,Top*%
%TF.FilePolarity,Positive*%
%FSLAX46Y46*%
G04 Gerber Fmt 4.6, Leading zero omitted, Abs format (unit mm)*
G04 Created by KiCad (PCBNEW 9.0.1) date 2025-05-28 17:40:13*
%MOMM*%
%LPD*%
G01*
G04 APERTURE LIST*
%ADD10C,0.150000*%
%ADD11C,0.120000*%
G04 APERTURE END LIST*
D10*
X80946666Y-65494819D02*
X80946666Y-66209104D01*
X80946666Y-66209104D02*
X80899047Y-66351961D01*
X80899047Y-66351961D02*
X80803809Y-66447200D01*
X80803809Y-66447200D02*
X80660952Y-66494819D01*
X80660952Y-66494819D02*
X80565714Y-66494819D01*
X81851428Y-65828152D02*
X81851428Y-66494819D01*
X81613333Y-65447200D02*
X81375238Y-66161485D01*
X81375238Y-66161485D02*
X81994285Y-66161485D01*
X142679819Y-81301666D02*
X142679819Y-81777856D01*
X142679819Y-81777856D02*
X141679819Y-81777856D01*
X141679819Y-80492142D02*
X141679819Y-80968332D01*
X141679819Y-80968332D02*
X142156009Y-81015951D01*
X142156009Y-81015951D02*
X142108390Y-80968332D01*
X142108390Y-80968332D02*
X142060771Y-80873094D01*
X142060771Y-80873094D02*
X142060771Y-80634999D01*
X142060771Y-80634999D02*
X142108390Y-80539761D01*
X142108390Y-80539761D02*
X142156009Y-80492142D01*
X142156009Y-80492142D02*
X142251247Y-80444523D01*
X142251247Y-80444523D02*
X142489342Y-80444523D01*
X142489342Y-80444523D02*
X142584580Y-80492142D01*
X142584580Y-80492142D02*
X142632200Y-80539761D01*
X142632200Y-80539761D02*
X142679819Y-80634999D01*
X142679819Y-80634999D02*
X142679819Y-80873094D01*
X142679819Y-80873094D02*
X142632200Y-80968332D01*
X142632200Y-80968332D02*
X142584580Y-81015951D01*
X157139819Y-83143094D02*
X156139819Y-83143094D01*
X156139819Y-83143094D02*
X156139819Y-82904999D01*
X156139819Y-82904999D02*
X156187438Y-82762142D01*
X156187438Y-82762142D02*
X156282676Y-82666904D01*
X156282676Y-82666904D02*
X156377914Y-82619285D01*
X156377914Y-82619285D02*
X156568390Y-82571666D01*
X156568390Y-82571666D02*
X156711247Y-82571666D01*
X156711247Y-82571666D02*
X156901723Y-82619285D01*
X156901723Y-82619285D02*
X156996961Y-82666904D01*
X156996961Y-82666904D02*
X157092200Y-82762142D01*
X157092200Y-82762142D02*
X157139819Y-82904999D01*
X157139819Y-82904999D02*
X157139819Y-83143094D01*
X156139819Y-81666904D02*
X156139819Y-82143094D01*
X156139819Y-82143094D02*
X156616009Y-82190713D01*
X156616009Y-82190713D02*
X156568390Y-82143094D01*
X156568390Y-82143094D02*
X156520771Y-82047856D01*
X156520771Y-82047856D02*
X156520771Y-81809761D01*
X156520771Y-81809761D02*
X156568390Y-81714523D01*
X156568390Y-81714523D02*
X156616009Y-81666904D01*
X156616009Y-81666904D02*
X156711247Y-81619285D01*
X156711247Y-81619285D02*
X156949342Y-81619285D01*
X156949342Y-81619285D02*
X157044580Y-81666904D01*
X157044580Y-81666904D02*
X157092200Y-81714523D01*
X157092200Y-81714523D02*
X157139819Y-81809761D01*
X157139819Y-81809761D02*
X157139819Y-82047856D01*
X157139819Y-82047856D02*
X157092200Y-82143094D01*
X157092200Y-82143094D02*
X157044580Y-82190713D01*
X146918333Y-81464819D02*
X146585000Y-80988628D01*
X146346905Y-81464819D02*
X146346905Y-80464819D01*
X146346905Y-80464819D02*
X146727857Y-80464819D01*
X146727857Y-80464819D02*
X146823095Y-80512438D01*
X146823095Y-80512438D02*
X146870714Y-80560057D01*
X146870714Y-80560057D02*
X146918333Y-80655295D01*
X146918333Y-80655295D02*
X146918333Y-80798152D01*
X146918333Y-80798152D02*
X146870714Y-80893390D01*
X146870714Y-80893390D02*
X146823095Y-80941009D01*
X146823095Y-80941009D02*
X146727857Y-80988628D01*
X146727857Y-80988628D02*
X146346905Y-80988628D01*
X147870714Y-81464819D02*
X147299286Y-81464819D01*
X147585000Y-81464819D02*
X147585000Y-80464819D01*
X147585000Y-80464819D02*
X147489762Y-80607676D01*
X147489762Y-80607676D02*
X147394524Y-80702914D01*
X147394524Y-80702914D02*
X147299286Y-80750533D01*
X102764333Y-109835819D02*
X102288143Y-109835819D01*
X102288143Y-109835819D02*
X102288143Y-108835819D01*
X103002429Y-108835819D02*
X103621476Y-108835819D01*
X103621476Y-108835819D02*
X103288143Y-109216771D01*
X103288143Y-109216771D02*
X103431000Y-109216771D01*
X103431000Y-109216771D02*
X103526238Y-109264390D01*
X103526238Y-109264390D02*
X103573857Y-109312009D01*
X103573857Y-109312009D02*
X103621476Y-109407247D01*
X103621476Y-109407247D02*
X103621476Y-109645342D01*
X103621476Y-109645342D02*
X103573857Y-109740580D01*
X103573857Y-109740580D02*
X103526238Y-109788200D01*
X103526238Y-109788200D02*
X103431000Y-109835819D01*
X103431000Y-109835819D02*
X103145286Y-109835819D01*
X103145286Y-109835819D02*
X103050048Y-109788200D01*
X103050048Y-109788200D02*
X103002429Y-109740580D01*
X156854819Y-89333333D02*
X157569104Y-89333333D01*
X157569104Y-89333333D02*
X157711961Y-89380952D01*
X157711961Y-89380952D02*
X157807200Y-89476190D01*
X157807200Y-89476190D02*
X157854819Y-89619047D01*
X157854819Y-89619047D02*
X157854819Y-89714285D01*
X156854819Y-88380952D02*
X156854819Y-88857142D01*
X156854819Y-88857142D02*
X157331009Y-88904761D01*
X157331009Y-88904761D02*
X157283390Y-88857142D01*
X157283390Y-88857142D02*
X157235771Y-88761904D01*
X157235771Y-88761904D02*
X157235771Y-88523809D01*
X157235771Y-88523809D02*
X157283390Y-88428571D01*
X157283390Y-88428571D02*
X157331009Y-88380952D01*
X157331009Y-88380952D02*
X157426247Y-88333333D01*
X157426247Y-88333333D02*
X157664342Y-88333333D01*
X157664342Y-88333333D02*
X157759580Y-88380952D01*
X157759580Y-88380952D02*
X157807200Y-88428571D01*
X157807200Y-88428571D02*
X157854819Y-88523809D01*
X157854819Y-88523809D02*
X157854819Y-88761904D01*
X157854819Y-88761904D02*
X157807200Y-88857142D01*
X157807200Y-88857142D02*
X157759580Y-88904761D01*
X121158095Y-100754819D02*
X121158095Y-101564342D01*
X121158095Y-101564342D02*
X121205714Y-101659580D01*
X121205714Y-101659580D02*
X121253333Y-101707200D01*
X121253333Y-101707200D02*
X121348571Y-101754819D01*
X121348571Y-101754819D02*
X121539047Y-101754819D01*
X121539047Y-101754819D02*
X121634285Y-101707200D01*
X121634285Y-101707200D02*
X121681904Y-101659580D01*
X121681904Y-101659580D02*
X121729523Y-101564342D01*
X121729523Y-101564342D02*
X121729523Y-100754819D01*
X122110476Y-100754819D02*
X122729523Y-100754819D01*
X122729523Y-100754819D02*
X122396190Y-101135771D01*
X122396190Y-101135771D02*
X122539047Y-101135771D01*
X122539047Y-101135771D02*
X122634285Y-101183390D01*
X122634285Y-101183390D02*
X122681904Y-101231009D01*
X122681904Y-101231009D02*
X122729523Y-101326247D01*
X122729523Y-101326247D02*
X122729523Y-101564342D01*
X122729523Y-101564342D02*
X122681904Y-101659580D01*
X122681904Y-101659580D02*
X122634285Y-101707200D01*
X122634285Y-101707200D02*
X122539047Y-101754819D01*
X122539047Y-101754819D02*
X122253333Y-101754819D01*
X122253333Y-101754819D02*
X122158095Y-101707200D01*
X122158095Y-101707200D02*
X122110476Y-101659580D01*
X87684333Y-76400580D02*
X87636714Y-76448200D01*
X87636714Y-76448200D02*
X87493857Y-76495819D01*
X87493857Y-76495819D02*
X87398619Y-76495819D01*
X87398619Y-76495819D02*
X87255762Y-76448200D01*
X87255762Y-76448200D02*
X87160524Y-76352961D01*
X87160524Y-76352961D02*
X87112905Y-76257723D01*
X87112905Y-76257723D02*
X87065286Y-76067247D01*
X87065286Y-76067247D02*
X87065286Y-75924390D01*
X87065286Y-75924390D02*
X87112905Y-75733914D01*
X87112905Y-75733914D02*
X87160524Y-75638676D01*
X87160524Y-75638676D02*
X87255762Y-75543438D01*
X87255762Y-75543438D02*
X87398619Y-75495819D01*
X87398619Y-75495819D02*
X87493857Y-75495819D01*
X87493857Y-75495819D02*
X87636714Y-75543438D01*
X87636714Y-75543438D02*
X87684333Y-75591057D01*
X88017667Y-75495819D02*
X88684333Y-75495819D01*
X88684333Y-75495819D02*
X88255762Y-76495819D01*
X130394580Y-90191666D02*
X130442200Y-90239285D01*
X130442200Y-90239285D02*
X130489819Y-90382142D01*
X130489819Y-90382142D02*
X130489819Y-90477380D01*
X130489819Y-90477380D02*
X130442200Y-90620237D01*
X130442200Y-90620237D02*
X130346961Y-90715475D01*
X130346961Y-90715475D02*
X130251723Y-90763094D01*
X130251723Y-90763094D02*
X130061247Y-90810713D01*
X130061247Y-90810713D02*
X129918390Y-90810713D01*
X129918390Y-90810713D02*
X129727914Y-90763094D01*
X129727914Y-90763094D02*
X129632676Y-90715475D01*
X129632676Y-90715475D02*
X129537438Y-90620237D01*
X129537438Y-90620237D02*
X129489819Y-90477380D01*
X129489819Y-90477380D02*
X129489819Y-90382142D01*
X129489819Y-90382142D02*
X129537438Y-90239285D01*
X129537438Y-90239285D02*
X129585057Y-90191666D01*
X130489819Y-89715475D02*
X130489819Y-89524999D01*
X130489819Y-89524999D02*
X130442200Y-89429761D01*
X130442200Y-89429761D02*
X130394580Y-89382142D01*
X130394580Y-89382142D02*
X130251723Y-89286904D01*
X130251723Y-89286904D02*
X130061247Y-89239285D01*
X130061247Y-89239285D02*
X129680295Y-89239285D01*
X129680295Y-89239285D02*
X129585057Y-89286904D01*
X129585057Y-89286904D02*
X129537438Y-89334523D01*
X129537438Y-89334523D02*
X129489819Y-89429761D01*
X129489819Y-89429761D02*
X129489819Y-89620237D01*
X129489819Y-89620237D02*
X129537438Y-89715475D01*
X129537438Y-89715475D02*
X129585057Y-89763094D01*
X129585057Y-89763094D02*
X129680295Y-89810713D01*
X129680295Y-89810713D02*
X129918390Y-89810713D01*
X129918390Y-89810713D02*
X130013628Y-89763094D01*
X130013628Y-89763094D02*
X130061247Y-89715475D01*
X130061247Y-89715475D02*
X130108866Y-89620237D01*
X130108866Y-89620237D02*
X130108866Y-89429761D01*
X130108866Y-89429761D02*
X130061247Y-89334523D01*
X130061247Y-89334523D02*
X130013628Y-89286904D01*
X130013628Y-89286904D02*
X129918390Y-89239285D01*
X156699819Y-99248333D02*
X157414104Y-99248333D01*
X157414104Y-99248333D02*
X157556961Y-99295952D01*
X157556961Y-99295952D02*
X157652200Y-99391190D01*
X157652200Y-99391190D02*
X157699819Y-99534047D01*
X157699819Y-99534047D02*
X157699819Y-99629285D01*
X157699819Y-98248333D02*
X157699819Y-98819761D01*
X157699819Y-98534047D02*
X156699819Y-98534047D01*
X156699819Y-98534047D02*
X156842676Y-98629285D01*
X156842676Y-98629285D02*
X156937914Y-98724523D01*
X156937914Y-98724523D02*
X156985533Y-98819761D01*
X138869819Y-82226666D02*
X138393628Y-82559999D01*
X138869819Y-82798094D02*
X137869819Y-82798094D01*
X137869819Y-82798094D02*
X137869819Y-82417142D01*
X137869819Y-82417142D02*
X137917438Y-82321904D01*
X137917438Y-82321904D02*
X137965057Y-82274285D01*
X137965057Y-82274285D02*
X138060295Y-82226666D01*
X138060295Y-82226666D02*
X138203152Y-82226666D01*
X138203152Y-82226666D02*
X138298390Y-82274285D01*
X138298390Y-82274285D02*
X138346009Y-82321904D01*
X138346009Y-82321904D02*
X138393628Y-82417142D01*
X138393628Y-82417142D02*
X138393628Y-82798094D01*
X137965057Y-81845713D02*
X137917438Y-81798094D01*
X137917438Y-81798094D02*
X137869819Y-81702856D01*
X137869819Y-81702856D02*
X137869819Y-81464761D01*
X137869819Y-81464761D02*
X137917438Y-81369523D01*
X137917438Y-81369523D02*
X137965057Y-81321904D01*
X137965057Y-81321904D02*
X138060295Y-81274285D01*
X138060295Y-81274285D02*
X138155533Y-81274285D01*
X138155533Y-81274285D02*
X138298390Y-81321904D01*
X138298390Y-81321904D02*
X138869819Y-81893332D01*
X138869819Y-81893332D02*
X138869819Y-81274285D01*
X120944580Y-96686666D02*
X120992200Y-96734285D01*
X120992200Y-96734285D02*
X121039819Y-96877142D01*
X121039819Y-96877142D02*
X121039819Y-96972380D01*
X121039819Y-96972380D02*
X120992200Y-97115237D01*
X120992200Y-97115237D02*
X120896961Y-97210475D01*
X120896961Y-97210475D02*
X120801723Y-97258094D01*
X120801723Y-97258094D02*
X120611247Y-97305713D01*
X120611247Y-97305713D02*
X120468390Y-97305713D01*
X120468390Y-97305713D02*
X120277914Y-97258094D01*
X120277914Y-97258094D02*
X120182676Y-97210475D01*
X120182676Y-97210475D02*
X120087438Y-97115237D01*
X120087438Y-97115237D02*
X120039819Y-96972380D01*
X120039819Y-96972380D02*
X120039819Y-96877142D01*
X120039819Y-96877142D02*
X120087438Y-96734285D01*
X120087438Y-96734285D02*
X120135057Y-96686666D01*
X120039819Y-96353332D02*
X120039819Y-95734285D01*
X120039819Y-95734285D02*
X120420771Y-96067618D01*
X120420771Y-96067618D02*
X120420771Y-95924761D01*
X120420771Y-95924761D02*
X120468390Y-95829523D01*
X120468390Y-95829523D02*
X120516009Y-95781904D01*
X120516009Y-95781904D02*
X120611247Y-95734285D01*
X120611247Y-95734285D02*
X120849342Y-95734285D01*
X120849342Y-95734285D02*
X120944580Y-95781904D01*
X120944580Y-95781904D02*
X120992200Y-95829523D01*
X120992200Y-95829523D02*
X121039819Y-95924761D01*
X121039819Y-95924761D02*
X121039819Y-96210475D01*
X121039819Y-96210475D02*
X120992200Y-96305713D01*
X120992200Y-96305713D02*
X120944580Y-96353332D01*
X116423095Y-80799819D02*
X116423095Y-81609342D01*
X116423095Y-81609342D02*
X116470714Y-81704580D01*
X116470714Y-81704580D02*
X116518333Y-81752200D01*
X116518333Y-81752200D02*
X116613571Y-81799819D01*
X116613571Y-81799819D02*
X116804047Y-81799819D01*
X116804047Y-81799819D02*
X116899285Y-81752200D01*
X116899285Y-81752200D02*
X116946904Y-81704580D01*
X116946904Y-81704580D02*
X116994523Y-81609342D01*
X116994523Y-81609342D02*
X116994523Y-80799819D01*
X117423095Y-80895057D02*
X117470714Y-80847438D01*
X117470714Y-80847438D02*
X117565952Y-80799819D01*
X117565952Y-80799819D02*
X117804047Y-80799819D01*
X117804047Y-80799819D02*
X117899285Y-80847438D01*
X117899285Y-80847438D02*
X117946904Y-80895057D01*
X117946904Y-80895057D02*
X117994523Y-80990295D01*
X117994523Y-80990295D02*
X117994523Y-81085533D01*
X117994523Y-81085533D02*
X117946904Y-81228390D01*
X117946904Y-81228390D02*
X117375476Y-81799819D01*
X117375476Y-81799819D02*
X117994523Y-81799819D01*
X112696666Y-62954819D02*
X112696666Y-63669104D01*
X112696666Y-63669104D02*
X112649047Y-63811961D01*
X112649047Y-63811961D02*
X112553809Y-63907200D01*
X112553809Y-63907200D02*
X112410952Y-63954819D01*
X112410952Y-63954819D02*
X112315714Y-63954819D01*
X113125238Y-63050057D02*
X113172857Y-63002438D01*
X113172857Y-63002438D02*
X113268095Y-62954819D01*
X113268095Y-62954819D02*
X113506190Y-62954819D01*
X113506190Y-62954819D02*
X113601428Y-63002438D01*
X113601428Y-63002438D02*
X113649047Y-63050057D01*
X113649047Y-63050057D02*
X113696666Y-63145295D01*
X113696666Y-63145295D02*
X113696666Y-63240533D01*
X113696666Y-63240533D02*
X113649047Y-63383390D01*
X113649047Y-63383390D02*
X113077619Y-63954819D01*
X113077619Y-63954819D02*
X113696666Y-63954819D01*
X111424580Y-85431666D02*
X111472200Y-85479285D01*
X111472200Y-85479285D02*
X111519819Y-85622142D01*
X111519819Y-85622142D02*
X111519819Y-85717380D01*
X111519819Y-85717380D02*
X111472200Y-85860237D01*
X111472200Y-85860237D02*
X111376961Y-85955475D01*
X111376961Y-85955475D02*
X111281723Y-86003094D01*
X111281723Y-86003094D02*
X111091247Y-86050713D01*
X111091247Y-86050713D02*
X110948390Y-86050713D01*
X110948390Y-86050713D02*
X110757914Y-86003094D01*
X110757914Y-86003094D02*
X110662676Y-85955475D01*
X110662676Y-85955475D02*
X110567438Y-85860237D01*
X110567438Y-85860237D02*
X110519819Y-85717380D01*
X110519819Y-85717380D02*
X110519819Y-85622142D01*
X110519819Y-85622142D02*
X110567438Y-85479285D01*
X110567438Y-85479285D02*
X110615057Y-85431666D01*
X111519819Y-84479285D02*
X111519819Y-85050713D01*
X111519819Y-84764999D02*
X110519819Y-84764999D01*
X110519819Y-84764999D02*
X110662676Y-84860237D01*
X110662676Y-84860237D02*
X110757914Y-84955475D01*
X110757914Y-84955475D02*
X110805533Y-85050713D01*
X96353333Y-65825819D02*
X95877143Y-65825819D01*
X95877143Y-65825819D02*
X95877143Y-64825819D01*
X97115238Y-65159152D02*
X97115238Y-65825819D01*
X96877143Y-64778200D02*
X96639048Y-65492485D01*
X96639048Y-65492485D02*
X97258095Y-65492485D01*
X106580819Y-82077904D02*
X107390342Y-82077904D01*
X107390342Y-82077904D02*
X107485580Y-82030285D01*
X107485580Y-82030285D02*
X107533200Y-81982666D01*
X107533200Y-81982666D02*
X107580819Y-81887428D01*
X107580819Y-81887428D02*
X107580819Y-81696952D01*
X107580819Y-81696952D02*
X107533200Y-81601714D01*
X107533200Y-81601714D02*
X107485580Y-81554095D01*
X107485580Y-81554095D02*
X107390342Y-81506476D01*
X107390342Y-81506476D02*
X106580819Y-81506476D01*
X106914152Y-80601714D02*
X107580819Y-80601714D01*
X106533200Y-80839809D02*
X107247485Y-81077904D01*
X107247485Y-81077904D02*
X107247485Y-80458857D01*
X87684333Y-94180580D02*
X87636714Y-94228200D01*
X87636714Y-94228200D02*
X87493857Y-94275819D01*
X87493857Y-94275819D02*
X87398619Y-94275819D01*
X87398619Y-94275819D02*
X87255762Y-94228200D01*
X87255762Y-94228200D02*
X87160524Y-94132961D01*
X87160524Y-94132961D02*
X87112905Y-94037723D01*
X87112905Y-94037723D02*
X87065286Y-93847247D01*
X87065286Y-93847247D02*
X87065286Y-93704390D01*
X87065286Y-93704390D02*
X87112905Y-93513914D01*
X87112905Y-93513914D02*
X87160524Y-93418676D01*
X87160524Y-93418676D02*
X87255762Y-93323438D01*
X87255762Y-93323438D02*
X87398619Y-93275819D01*
X87398619Y-93275819D02*
X87493857Y-93275819D01*
X87493857Y-93275819D02*
X87636714Y-93323438D01*
X87636714Y-93323438D02*
X87684333Y-93371057D01*
X88589095Y-93275819D02*
X88112905Y-93275819D01*
X88112905Y-93275819D02*
X88065286Y-93752009D01*
X88065286Y-93752009D02*
X88112905Y-93704390D01*
X88112905Y-93704390D02*
X88208143Y-93656771D01*
X88208143Y-93656771D02*
X88446238Y-93656771D01*
X88446238Y-93656771D02*
X88541476Y-93704390D01*
X88541476Y-93704390D02*
X88589095Y-93752009D01*
X88589095Y-93752009D02*
X88636714Y-93847247D01*
X88636714Y-93847247D02*
X88636714Y-94085342D01*
X88636714Y-94085342D02*
X88589095Y-94180580D01*
X88589095Y-94180580D02*
X88541476Y-94228200D01*
X88541476Y-94228200D02*
X88446238Y-94275819D01*
X88446238Y-94275819D02*
X88208143Y-94275819D01*
X88208143Y-94275819D02*
X88112905Y-94228200D01*
X88112905Y-94228200D02*
X88065286Y-94180580D01*
X110899819Y-115255594D02*
X109899819Y-115255594D01*
X109899819Y-115255594D02*
X109899819Y-115017499D01*
X109899819Y-115017499D02*
X109947438Y-114874642D01*
X109947438Y-114874642D02*
X110042676Y-114779404D01*
X110042676Y-114779404D02*
X110137914Y-114731785D01*
X110137914Y-114731785D02*
X110328390Y-114684166D01*
X110328390Y-114684166D02*
X110471247Y-114684166D01*
X110471247Y-114684166D02*
X110661723Y-114731785D01*
X110661723Y-114731785D02*
X110756961Y-114779404D01*
X110756961Y-114779404D02*
X110852200Y-114874642D01*
X110852200Y-114874642D02*
X110899819Y-115017499D01*
X110899819Y-115017499D02*
X110899819Y-115255594D01*
X109995057Y-114303213D02*
X109947438Y-114255594D01*
X109947438Y-114255594D02*
X109899819Y-114160356D01*
X109899819Y-114160356D02*
X109899819Y-113922261D01*
X109899819Y-113922261D02*
X109947438Y-113827023D01*
X109947438Y-113827023D02*
X109995057Y-113779404D01*
X109995057Y-113779404D02*
X110090295Y-113731785D01*
X110090295Y-113731785D02*
X110185533Y-113731785D01*
X110185533Y-113731785D02*
X110328390Y-113779404D01*
X110328390Y-113779404D02*
X110899819Y-114350832D01*
X110899819Y-114350832D02*
X110899819Y-113731785D01*
X119574580Y-85431666D02*
X119622200Y-85479285D01*
X119622200Y-85479285D02*
X119669819Y-85622142D01*
X119669819Y-85622142D02*
X119669819Y-85717380D01*
X119669819Y-85717380D02*
X119622200Y-85860237D01*
X119622200Y-85860237D02*
X119526961Y-85955475D01*
X119526961Y-85955475D02*
X119431723Y-86003094D01*
X119431723Y-86003094D02*
X119241247Y-86050713D01*
X119241247Y-86050713D02*
X119098390Y-86050713D01*
X119098390Y-86050713D02*
X118907914Y-86003094D01*
X118907914Y-86003094D02*
X118812676Y-85955475D01*
X118812676Y-85955475D02*
X118717438Y-85860237D01*
X118717438Y-85860237D02*
X118669819Y-85717380D01*
X118669819Y-85717380D02*
X118669819Y-85622142D01*
X118669819Y-85622142D02*
X118717438Y-85479285D01*
X118717438Y-85479285D02*
X118765057Y-85431666D01*
X118765057Y-85050713D02*
X118717438Y-85003094D01*
X118717438Y-85003094D02*
X118669819Y-84907856D01*
X118669819Y-84907856D02*
X118669819Y-84669761D01*
X118669819Y-84669761D02*
X118717438Y-84574523D01*
X118717438Y-84574523D02*
X118765057Y-84526904D01*
X118765057Y-84526904D02*
X118860295Y-84479285D01*
X118860295Y-84479285D02*
X118955533Y-84479285D01*
X118955533Y-84479285D02*
X119098390Y-84526904D01*
X119098390Y-84526904D02*
X119669819Y-85098332D01*
X119669819Y-85098332D02*
X119669819Y-84479285D01*
X140097142Y-114584580D02*
X140049523Y-114632200D01*
X140049523Y-114632200D02*
X139906666Y-114679819D01*
X139906666Y-114679819D02*
X139811428Y-114679819D01*
X139811428Y-114679819D02*
X139668571Y-114632200D01*
X139668571Y-114632200D02*
X139573333Y-114536961D01*
X139573333Y-114536961D02*
X139525714Y-114441723D01*
X139525714Y-114441723D02*
X139478095Y-114251247D01*
X139478095Y-114251247D02*
X139478095Y-114108390D01*
X139478095Y-114108390D02*
X139525714Y-113917914D01*
X139525714Y-113917914D02*
X139573333Y-113822676D01*
X139573333Y-113822676D02*
X139668571Y-113727438D01*
X139668571Y-113727438D02*
X139811428Y-113679819D01*
X139811428Y-113679819D02*
X139906666Y-113679819D01*
X139906666Y-113679819D02*
X140049523Y-113727438D01*
X140049523Y-113727438D02*
X140097142Y-113775057D01*
X141049523Y-114679819D02*
X140478095Y-114679819D01*
X140763809Y-114679819D02*
X140763809Y-113679819D01*
X140763809Y-113679819D02*
X140668571Y-113822676D01*
X140668571Y-113822676D02*
X140573333Y-113917914D01*
X140573333Y-113917914D02*
X140478095Y-113965533D01*
X141668571Y-113679819D02*
X141763809Y-113679819D01*
X141763809Y-113679819D02*
X141859047Y-113727438D01*
X141859047Y-113727438D02*
X141906666Y-113775057D01*
X141906666Y-113775057D02*
X141954285Y-113870295D01*
X141954285Y-113870295D02*
X142001904Y-114060771D01*
X142001904Y-114060771D02*
X142001904Y-114298866D01*
X142001904Y-114298866D02*
X141954285Y-114489342D01*
X141954285Y-114489342D02*
X141906666Y-114584580D01*
X141906666Y-114584580D02*
X141859047Y-114632200D01*
X141859047Y-114632200D02*
X141763809Y-114679819D01*
X141763809Y-114679819D02*
X141668571Y-114679819D01*
X141668571Y-114679819D02*
X141573333Y-114632200D01*
X141573333Y-114632200D02*
X141525714Y-114584580D01*
X141525714Y-114584580D02*
X141478095Y-114489342D01*
X141478095Y-114489342D02*
X141430476Y-114298866D01*
X141430476Y-114298866D02*
X141430476Y-114060771D01*
X141430476Y-114060771D02*
X141478095Y-113870295D01*
X141478095Y-113870295D02*
X141525714Y-113775057D01*
X141525714Y-113775057D02*
X141573333Y-113727438D01*
X141573333Y-113727438D02*
X141668571Y-113679819D01*
X128564580Y-96686666D02*
X128612200Y-96734285D01*
X128612200Y-96734285D02*
X128659819Y-96877142D01*
X128659819Y-96877142D02*
X128659819Y-96972380D01*
X128659819Y-96972380D02*
X128612200Y-97115237D01*
X128612200Y-97115237D02*
X128516961Y-97210475D01*
X128516961Y-97210475D02*
X128421723Y-97258094D01*
X128421723Y-97258094D02*
X128231247Y-97305713D01*
X128231247Y-97305713D02*
X128088390Y-97305713D01*
X128088390Y-97305713D02*
X127897914Y-97258094D01*
X127897914Y-97258094D02*
X127802676Y-97210475D01*
X127802676Y-97210475D02*
X127707438Y-97115237D01*
X127707438Y-97115237D02*
X127659819Y-96972380D01*
X127659819Y-96972380D02*
X127659819Y-96877142D01*
X127659819Y-96877142D02*
X127707438Y-96734285D01*
X127707438Y-96734285D02*
X127755057Y-96686666D01*
X127993152Y-95829523D02*
X128659819Y-95829523D01*
X127612200Y-96067618D02*
X128326485Y-96305713D01*
X128326485Y-96305713D02*
X128326485Y-95686666D01*
X136282142Y-100544580D02*
X136234523Y-100592200D01*
X136234523Y-100592200D02*
X136091666Y-100639819D01*
X136091666Y-100639819D02*
X135996428Y-100639819D01*
X135996428Y-100639819D02*
X135853571Y-100592200D01*
X135853571Y-100592200D02*
X135758333Y-100496961D01*
X135758333Y-100496961D02*
X135710714Y-100401723D01*
X135710714Y-100401723D02*
X135663095Y-100211247D01*
X135663095Y-100211247D02*
X135663095Y-100068390D01*
X135663095Y-100068390D02*
X135710714Y-99877914D01*
X135710714Y-99877914D02*
X135758333Y-99782676D01*
X135758333Y-99782676D02*
X135853571Y-99687438D01*
X135853571Y-99687438D02*
X135996428Y-99639819D01*
X135996428Y-99639819D02*
X136091666Y-99639819D01*
X136091666Y-99639819D02*
X136234523Y-99687438D01*
X136234523Y-99687438D02*
X136282142Y-99735057D01*
X137234523Y-100639819D02*
X136663095Y-100639819D01*
X136948809Y-100639819D02*
X136948809Y-99639819D01*
X136948809Y-99639819D02*
X136853571Y-99782676D01*
X136853571Y-99782676D02*
X136758333Y-99877914D01*
X136758333Y-99877914D02*
X136663095Y-99925533D01*
X138186904Y-100639819D02*
X137615476Y-100639819D01*
X137901190Y-100639819D02*
X137901190Y-99639819D01*
X137901190Y-99639819D02*
X137805952Y-99782676D01*
X137805952Y-99782676D02*
X137710714Y-99877914D01*
X137710714Y-99877914D02*
X137615476Y-99925533D01*
X110119819Y-103961666D02*
X110119819Y-104437856D01*
X110119819Y-104437856D02*
X109119819Y-104437856D01*
X109215057Y-103675951D02*
X109167438Y-103628332D01*
X109167438Y-103628332D02*
X109119819Y-103533094D01*
X109119819Y-103533094D02*
X109119819Y-103294999D01*
X109119819Y-103294999D02*
X109167438Y-103199761D01*
X109167438Y-103199761D02*
X109215057Y-103152142D01*
X109215057Y-103152142D02*
X109310295Y-103104523D01*
X109310295Y-103104523D02*
X109405533Y-103104523D01*
X109405533Y-103104523D02*
X109548390Y-103152142D01*
X109548390Y-103152142D02*
X110119819Y-103723570D01*
X110119819Y-103723570D02*
X110119819Y-103104523D01*
X97432905Y-106955819D02*
X97432905Y-105955819D01*
X97432905Y-105955819D02*
X97671000Y-105955819D01*
X97671000Y-105955819D02*
X97813857Y-106003438D01*
X97813857Y-106003438D02*
X97909095Y-106098676D01*
X97909095Y-106098676D02*
X97956714Y-106193914D01*
X97956714Y-106193914D02*
X98004333Y-106384390D01*
X98004333Y-106384390D02*
X98004333Y-106527247D01*
X98004333Y-106527247D02*
X97956714Y-106717723D01*
X97956714Y-106717723D02*
X97909095Y-106812961D01*
X97909095Y-106812961D02*
X97813857Y-106908200D01*
X97813857Y-106908200D02*
X97671000Y-106955819D01*
X97671000Y-106955819D02*
X97432905Y-106955819D01*
X98337667Y-105955819D02*
X98956714Y-105955819D01*
X98956714Y-105955819D02*
X98623381Y-106336771D01*
X98623381Y-106336771D02*
X98766238Y-106336771D01*
X98766238Y-106336771D02*
X98861476Y-106384390D01*
X98861476Y-106384390D02*
X98909095Y-106432009D01*
X98909095Y-106432009D02*
X98956714Y-106527247D01*
X98956714Y-106527247D02*
X98956714Y-106765342D01*
X98956714Y-106765342D02*
X98909095Y-106860580D01*
X98909095Y-106860580D02*
X98861476Y-106908200D01*
X98861476Y-106908200D02*
X98766238Y-106955819D01*
X98766238Y-106955819D02*
X98480524Y-106955819D01*
X98480524Y-106955819D02*
X98385286Y-106908200D01*
X98385286Y-106908200D02*
X98337667Y-106860580D01*
X87684333Y-103070580D02*
X87636714Y-103118200D01*
X87636714Y-103118200D02*
X87493857Y-103165819D01*
X87493857Y-103165819D02*
X87398619Y-103165819D01*
X87398619Y-103165819D02*
X87255762Y-103118200D01*
X87255762Y-103118200D02*
X87160524Y-103022961D01*
X87160524Y-103022961D02*
X87112905Y-102927723D01*
X87112905Y-102927723D02*
X87065286Y-102737247D01*
X87065286Y-102737247D02*
X87065286Y-102594390D01*
X87065286Y-102594390D02*
X87112905Y-102403914D01*
X87112905Y-102403914D02*
X87160524Y-102308676D01*
X87160524Y-102308676D02*
X87255762Y-102213438D01*
X87255762Y-102213438D02*
X87398619Y-102165819D01*
X87398619Y-102165819D02*
X87493857Y-102165819D01*
X87493857Y-102165819D02*
X87636714Y-102213438D01*
X87636714Y-102213438D02*
X87684333Y-102261057D01*
X88541476Y-102165819D02*
X88351000Y-102165819D01*
X88351000Y-102165819D02*
X88255762Y-102213438D01*
X88255762Y-102213438D02*
X88208143Y-102261057D01*
X88208143Y-102261057D02*
X88112905Y-102403914D01*
X88112905Y-102403914D02*
X88065286Y-102594390D01*
X88065286Y-102594390D02*
X88065286Y-102975342D01*
X88065286Y-102975342D02*
X88112905Y-103070580D01*
X88112905Y-103070580D02*
X88160524Y-103118200D01*
X88160524Y-103118200D02*
X88255762Y-103165819D01*
X88255762Y-103165819D02*
X88446238Y-103165819D01*
X88446238Y-103165819D02*
X88541476Y-103118200D01*
X88541476Y-103118200D02*
X88589095Y-103070580D01*
X88589095Y-103070580D02*
X88636714Y-102975342D01*
X88636714Y-102975342D02*
X88636714Y-102737247D01*
X88636714Y-102737247D02*
X88589095Y-102642009D01*
X88589095Y-102642009D02*
X88541476Y-102594390D01*
X88541476Y-102594390D02*
X88446238Y-102546771D01*
X88446238Y-102546771D02*
X88255762Y-102546771D01*
X88255762Y-102546771D02*
X88160524Y-102594390D01*
X88160524Y-102594390D02*
X88112905Y-102642009D01*
X88112905Y-102642009D02*
X88065286Y-102737247D01*
X132199819Y-77113094D02*
X131199819Y-77113094D01*
X131199819Y-77113094D02*
X131199819Y-76874999D01*
X131199819Y-76874999D02*
X131247438Y-76732142D01*
X131247438Y-76732142D02*
X131342676Y-76636904D01*
X131342676Y-76636904D02*
X131437914Y-76589285D01*
X131437914Y-76589285D02*
X131628390Y-76541666D01*
X131628390Y-76541666D02*
X131771247Y-76541666D01*
X131771247Y-76541666D02*
X131961723Y-76589285D01*
X131961723Y-76589285D02*
X132056961Y-76636904D01*
X132056961Y-76636904D02*
X132152200Y-76732142D01*
X132152200Y-76732142D02*
X132199819Y-76874999D01*
X132199819Y-76874999D02*
X132199819Y-77113094D01*
X132199819Y-75589285D02*
X132199819Y-76160713D01*
X132199819Y-75874999D02*
X131199819Y-75874999D01*
X131199819Y-75874999D02*
X131342676Y-75970237D01*
X131342676Y-75970237D02*
X131437914Y-76065475D01*
X131437914Y-76065475D02*
X131485533Y-76160713D01*
X150844580Y-83047857D02*
X150892200Y-83095476D01*
X150892200Y-83095476D02*
X150939819Y-83238333D01*
X150939819Y-83238333D02*
X150939819Y-83333571D01*
X150939819Y-83333571D02*
X150892200Y-83476428D01*
X150892200Y-83476428D02*
X150796961Y-83571666D01*
X150796961Y-83571666D02*
X150701723Y-83619285D01*
X150701723Y-83619285D02*
X150511247Y-83666904D01*
X150511247Y-83666904D02*
X150368390Y-83666904D01*
X150368390Y-83666904D02*
X150177914Y-83619285D01*
X150177914Y-83619285D02*
X150082676Y-83571666D01*
X150082676Y-83571666D02*
X149987438Y-83476428D01*
X149987438Y-83476428D02*
X149939819Y-83333571D01*
X149939819Y-83333571D02*
X149939819Y-83238333D01*
X149939819Y-83238333D02*
X149987438Y-83095476D01*
X149987438Y-83095476D02*
X150035057Y-83047857D01*
X150939819Y-82095476D02*
X150939819Y-82666904D01*
X150939819Y-82381190D02*
X149939819Y-82381190D01*
X149939819Y-82381190D02*
X150082676Y-82476428D01*
X150082676Y-82476428D02*
X150177914Y-82571666D01*
X150177914Y-82571666D02*
X150225533Y-82666904D01*
X149939819Y-81762142D02*
X149939819Y-81143095D01*
X149939819Y-81143095D02*
X150320771Y-81476428D01*
X150320771Y-81476428D02*
X150320771Y-81333571D01*
X150320771Y-81333571D02*
X150368390Y-81238333D01*
X150368390Y-81238333D02*
X150416009Y-81190714D01*
X150416009Y-81190714D02*
X150511247Y-81143095D01*
X150511247Y-81143095D02*
X150749342Y-81143095D01*
X150749342Y-81143095D02*
X150844580Y-81190714D01*
X150844580Y-81190714D02*
X150892200Y-81238333D01*
X150892200Y-81238333D02*
X150939819Y-81333571D01*
X150939819Y-81333571D02*
X150939819Y-81619285D01*
X150939819Y-81619285D02*
X150892200Y-81714523D01*
X150892200Y-81714523D02*
X150844580Y-81762142D01*
X93085819Y-96362904D02*
X93895342Y-96362904D01*
X93895342Y-96362904D02*
X93990580Y-96315285D01*
X93990580Y-96315285D02*
X94038200Y-96267666D01*
X94038200Y-96267666D02*
X94085819Y-96172428D01*
X94085819Y-96172428D02*
X94085819Y-95981952D01*
X94085819Y-95981952D02*
X94038200Y-95886714D01*
X94038200Y-95886714D02*
X93990580Y-95839095D01*
X93990580Y-95839095D02*
X93895342Y-95791476D01*
X93895342Y-95791476D02*
X93085819Y-95791476D01*
X94085819Y-94791476D02*
X94085819Y-95362904D01*
X94085819Y-95077190D02*
X93085819Y-95077190D01*
X93085819Y-95077190D02*
X93228676Y-95172428D01*
X93228676Y-95172428D02*
X93323914Y-95267666D01*
X93323914Y-95267666D02*
X93371533Y-95362904D01*
X102004905Y-65045819D02*
X102004905Y-64045819D01*
X102004905Y-64045819D02*
X102243000Y-64045819D01*
X102243000Y-64045819D02*
X102385857Y-64093438D01*
X102385857Y-64093438D02*
X102481095Y-64188676D01*
X102481095Y-64188676D02*
X102528714Y-64283914D01*
X102528714Y-64283914D02*
X102576333Y-64474390D01*
X102576333Y-64474390D02*
X102576333Y-64617247D01*
X102576333Y-64617247D02*
X102528714Y-64807723D01*
X102528714Y-64807723D02*
X102481095Y-64902961D01*
X102481095Y-64902961D02*
X102385857Y-64998200D01*
X102385857Y-64998200D02*
X102243000Y-65045819D01*
X102243000Y-65045819D02*
X102004905Y-65045819D01*
X103433476Y-64379152D02*
X103433476Y-65045819D01*
X103195381Y-63998200D02*
X102957286Y-64712485D01*
X102957286Y-64712485D02*
X103576333Y-64712485D01*
X150649819Y-97166904D02*
X151459342Y-97166904D01*
X151459342Y-97166904D02*
X151554580Y-97119285D01*
X151554580Y-97119285D02*
X151602200Y-97071666D01*
X151602200Y-97071666D02*
X151649819Y-96976428D01*
X151649819Y-96976428D02*
X151649819Y-96785952D01*
X151649819Y-96785952D02*
X151602200Y-96690714D01*
X151602200Y-96690714D02*
X151554580Y-96643095D01*
X151554580Y-96643095D02*
X151459342Y-96595476D01*
X151459342Y-96595476D02*
X150649819Y-96595476D01*
X150649819Y-95643095D02*
X150649819Y-96119285D01*
X150649819Y-96119285D02*
X151126009Y-96166904D01*
X151126009Y-96166904D02*
X151078390Y-96119285D01*
X151078390Y-96119285D02*
X151030771Y-96024047D01*
X151030771Y-96024047D02*
X151030771Y-95785952D01*
X151030771Y-95785952D02*
X151078390Y-95690714D01*
X151078390Y-95690714D02*
X151126009Y-95643095D01*
X151126009Y-95643095D02*
X151221247Y-95595476D01*
X151221247Y-95595476D02*
X151459342Y-95595476D01*
X151459342Y-95595476D02*
X151554580Y-95643095D01*
X151554580Y-95643095D02*
X151602200Y-95690714D01*
X151602200Y-95690714D02*
X151649819Y-95785952D01*
X151649819Y-95785952D02*
X151649819Y-96024047D01*
X151649819Y-96024047D02*
X151602200Y-96119285D01*
X151602200Y-96119285D02*
X151554580Y-96166904D01*
X131419819Y-71806666D02*
X131419819Y-72282856D01*
X131419819Y-72282856D02*
X130419819Y-72282856D01*
X131419819Y-70949523D02*
X131419819Y-71520951D01*
X131419819Y-71235237D02*
X130419819Y-71235237D01*
X130419819Y-71235237D02*
X130562676Y-71330475D01*
X130562676Y-71330475D02*
X130657914Y-71425713D01*
X130657914Y-71425713D02*
X130705533Y-71520951D01*
X87684333Y-85290580D02*
X87636714Y-85338200D01*
X87636714Y-85338200D02*
X87493857Y-85385819D01*
X87493857Y-85385819D02*
X87398619Y-85385819D01*
X87398619Y-85385819D02*
X87255762Y-85338200D01*
X87255762Y-85338200D02*
X87160524Y-85242961D01*
X87160524Y-85242961D02*
X87112905Y-85147723D01*
X87112905Y-85147723D02*
X87065286Y-84957247D01*
X87065286Y-84957247D02*
X87065286Y-84814390D01*
X87065286Y-84814390D02*
X87112905Y-84623914D01*
X87112905Y-84623914D02*
X87160524Y-84528676D01*
X87160524Y-84528676D02*
X87255762Y-84433438D01*
X87255762Y-84433438D02*
X87398619Y-84385819D01*
X87398619Y-84385819D02*
X87493857Y-84385819D01*
X87493857Y-84385819D02*
X87636714Y-84433438D01*
X87636714Y-84433438D02*
X87684333Y-84481057D01*
X88255762Y-84814390D02*
X88160524Y-84766771D01*
X88160524Y-84766771D02*
X88112905Y-84719152D01*
X88112905Y-84719152D02*
X88065286Y-84623914D01*
X88065286Y-84623914D02*
X88065286Y-84576295D01*
X88065286Y-84576295D02*
X88112905Y-84481057D01*
X88112905Y-84481057D02*
X88160524Y-84433438D01*
X88160524Y-84433438D02*
X88255762Y-84385819D01*
X88255762Y-84385819D02*
X88446238Y-84385819D01*
X88446238Y-84385819D02*
X88541476Y-84433438D01*
X88541476Y-84433438D02*
X88589095Y-84481057D01*
X88589095Y-84481057D02*
X88636714Y-84576295D01*
X88636714Y-84576295D02*
X88636714Y-84623914D01*
X88636714Y-84623914D02*
X88589095Y-84719152D01*
X88589095Y-84719152D02*
X88541476Y-84766771D01*
X88541476Y-84766771D02*
X88446238Y-84814390D01*
X88446238Y-84814390D02*
X88255762Y-84814390D01*
X88255762Y-84814390D02*
X88160524Y-84862009D01*
X88160524Y-84862009D02*
X88112905Y-84909628D01*
X88112905Y-84909628D02*
X88065286Y-85004866D01*
X88065286Y-85004866D02*
X88065286Y-85195342D01*
X88065286Y-85195342D02*
X88112905Y-85290580D01*
X88112905Y-85290580D02*
X88160524Y-85338200D01*
X88160524Y-85338200D02*
X88255762Y-85385819D01*
X88255762Y-85385819D02*
X88446238Y-85385819D01*
X88446238Y-85385819D02*
X88541476Y-85338200D01*
X88541476Y-85338200D02*
X88589095Y-85290580D01*
X88589095Y-85290580D02*
X88636714Y-85195342D01*
X88636714Y-85195342D02*
X88636714Y-85004866D01*
X88636714Y-85004866D02*
X88589095Y-84909628D01*
X88589095Y-84909628D02*
X88541476Y-84862009D01*
X88541476Y-84862009D02*
X88446238Y-84814390D01*
X121866666Y-116954819D02*
X121866666Y-117669104D01*
X121866666Y-117669104D02*
X121819047Y-117811961D01*
X121819047Y-117811961D02*
X121723809Y-117907200D01*
X121723809Y-117907200D02*
X121580952Y-117954819D01*
X121580952Y-117954819D02*
X121485714Y-117954819D01*
X122247619Y-116954819D02*
X122866666Y-116954819D01*
X122866666Y-116954819D02*
X122533333Y-117335771D01*
X122533333Y-117335771D02*
X122676190Y-117335771D01*
X122676190Y-117335771D02*
X122771428Y-117383390D01*
X122771428Y-117383390D02*
X122819047Y-117431009D01*
X122819047Y-117431009D02*
X122866666Y-117526247D01*
X122866666Y-117526247D02*
X122866666Y-117764342D01*
X122866666Y-117764342D02*
X122819047Y-117859580D01*
X122819047Y-117859580D02*
X122771428Y-117907200D01*
X122771428Y-117907200D02*
X122676190Y-117954819D01*
X122676190Y-117954819D02*
X122390476Y-117954819D01*
X122390476Y-117954819D02*
X122295238Y-117907200D01*
X122295238Y-117907200D02*
X122247619Y-117859580D01*
X133064580Y-83047857D02*
X133112200Y-83095476D01*
X133112200Y-83095476D02*
X133159819Y-83238333D01*
X133159819Y-83238333D02*
X133159819Y-83333571D01*
X133159819Y-83333571D02*
X133112200Y-83476428D01*
X133112200Y-83476428D02*
X133016961Y-83571666D01*
X133016961Y-83571666D02*
X132921723Y-83619285D01*
X132921723Y-83619285D02*
X132731247Y-83666904D01*
X132731247Y-83666904D02*
X132588390Y-83666904D01*
X132588390Y-83666904D02*
X132397914Y-83619285D01*
X132397914Y-83619285D02*
X132302676Y-83571666D01*
X132302676Y-83571666D02*
X132207438Y-83476428D01*
X132207438Y-83476428D02*
X132159819Y-83333571D01*
X132159819Y-83333571D02*
X132159819Y-83238333D01*
X132159819Y-83238333D02*
X132207438Y-83095476D01*
X132207438Y-83095476D02*
X132255057Y-83047857D01*
X133159819Y-82095476D02*
X133159819Y-82666904D01*
X133159819Y-82381190D02*
X132159819Y-82381190D01*
X132159819Y-82381190D02*
X132302676Y-82476428D01*
X132302676Y-82476428D02*
X132397914Y-82571666D01*
X132397914Y-82571666D02*
X132445533Y-82666904D01*
X132255057Y-81714523D02*
X132207438Y-81666904D01*
X132207438Y-81666904D02*
X132159819Y-81571666D01*
X132159819Y-81571666D02*
X132159819Y-81333571D01*
X132159819Y-81333571D02*
X132207438Y-81238333D01*
X132207438Y-81238333D02*
X132255057Y-81190714D01*
X132255057Y-81190714D02*
X132350295Y-81143095D01*
X132350295Y-81143095D02*
X132445533Y-81143095D01*
X132445533Y-81143095D02*
X132588390Y-81190714D01*
X132588390Y-81190714D02*
X133159819Y-81762142D01*
X133159819Y-81762142D02*
X133159819Y-81143095D01*
D11*
%TO.C,J4*%
X87761000Y-72591000D02*
X87761000Y-76271000D01*
X87761000Y-72591000D02*
X87501000Y-72591000D01*
X87761000Y-71821000D02*
X87761000Y-68141000D01*
X87761000Y-68141000D02*
X82931000Y-68141000D01*
X87501000Y-72591000D02*
X87501000Y-71821000D01*
X87501000Y-71821000D02*
X87761000Y-71821000D01*
X82931000Y-76271000D02*
X87761000Y-76271000D01*
X81021000Y-76271000D02*
X82931000Y-76271000D01*
X81021000Y-76271000D02*
X81021000Y-68141000D01*
X81021000Y-75001000D02*
X79631000Y-75001000D01*
X81021000Y-69411000D02*
X79631000Y-69411000D01*
X81021000Y-68141000D02*
X82931000Y-68141000D01*
X80771000Y-75001000D02*
X80771000Y-69411000D01*
X80731000Y-76611000D02*
X82931000Y-76611000D01*
X80731000Y-75311000D02*
X80731000Y-76611000D01*
X79881000Y-75001000D02*
X79881000Y-69411000D01*
X79631000Y-75001000D02*
X79631000Y-69411000D01*
%TO.C,D5*%
X157380000Y-80805000D02*
X157380000Y-84865000D01*
X157380000Y-84865000D02*
X159650000Y-84865000D01*
X159650000Y-84865000D02*
X159650000Y-80805000D01*
%TO.C,J5*%
X152415000Y-90275000D02*
X152415000Y-86595000D01*
X152415000Y-90275000D02*
X152675000Y-90275000D01*
X152415000Y-91045000D02*
X152415000Y-94725000D01*
X152415000Y-94725000D02*
X157245000Y-94725000D01*
X152675000Y-90275000D02*
X152675000Y-91045000D01*
X152675000Y-91045000D02*
X152415000Y-91045000D01*
X157245000Y-86595000D02*
X152415000Y-86595000D01*
X159155000Y-86595000D02*
X157245000Y-86595000D01*
X159155000Y-86595000D02*
X159155000Y-94725000D01*
X159155000Y-87865000D02*
X160545000Y-87865000D01*
X159155000Y-93455000D02*
X160545000Y-93455000D01*
X159155000Y-94725000D02*
X157245000Y-94725000D01*
X159405000Y-87865000D02*
X159405000Y-93455000D01*
X159445000Y-86255000D02*
X157245000Y-86255000D01*
X159445000Y-87555000D02*
X159445000Y-86255000D01*
X160295000Y-87865000D02*
X160295000Y-93455000D01*
X160545000Y-87865000D02*
X160545000Y-93455000D01*
%TO.C,U3*%
X117095000Y-102750000D02*
X117095000Y-103700000D01*
X117095000Y-113150000D02*
X117095000Y-112200000D01*
X118460000Y-102750000D02*
X117095000Y-102750000D01*
X118460000Y-113150000D02*
X117095000Y-113150000D01*
X114270000Y-103740000D02*
X113930000Y-103270000D01*
X114610000Y-103270000D01*
X114270000Y-103740000D01*
G36*
X114270000Y-103740000D02*
G01*
X113930000Y-103270000D01*
X114610000Y-103270000D01*
X114270000Y-103740000D01*
G37*
%TO.C,C7*%
X83413500Y-78543500D02*
X84201000Y-78543500D01*
X83807250Y-78149750D02*
X83807250Y-78937250D01*
X84441000Y-78045437D02*
X84441000Y-79331000D01*
X84441000Y-78045437D02*
X85505437Y-76981000D01*
X84441000Y-82736563D02*
X84441000Y-81451000D01*
X84441000Y-82736563D02*
X85505437Y-83801000D01*
X85505437Y-76981000D02*
X91261000Y-76981000D01*
X85505437Y-83801000D02*
X91261000Y-83801000D01*
X91261000Y-76981000D02*
X91261000Y-79331000D01*
X91261000Y-83801000D02*
X91261000Y-81451000D01*
%TO.C,C9*%
X130975000Y-86615000D02*
X133325000Y-86615000D01*
X130975000Y-92370563D02*
X130975000Y-86615000D01*
X132039437Y-93435000D02*
X130975000Y-92370563D01*
X132039437Y-93435000D02*
X133325000Y-93435000D01*
X132143750Y-94068750D02*
X132931250Y-94068750D01*
X132537500Y-94462500D02*
X132537500Y-93675000D01*
X136730563Y-93435000D02*
X135445000Y-93435000D01*
X136730563Y-93435000D02*
X137795000Y-92370563D01*
X137795000Y-86615000D02*
X135445000Y-86615000D01*
X137795000Y-92370563D02*
X137795000Y-86615000D01*
%TO.C,J1*%
X152415000Y-100435000D02*
X152415000Y-96755000D01*
X152415000Y-100435000D02*
X152675000Y-100435000D01*
X152415000Y-101205000D02*
X152415000Y-104885000D01*
X152415000Y-104885000D02*
X157245000Y-104885000D01*
X152675000Y-100435000D02*
X152675000Y-101205000D01*
X152675000Y-101205000D02*
X152415000Y-101205000D01*
X157245000Y-96755000D02*
X152415000Y-96755000D01*
X159155000Y-96755000D02*
X157245000Y-96755000D01*
X159155000Y-96755000D02*
X159155000Y-104885000D01*
X159155000Y-98025000D02*
X160545000Y-98025000D01*
X159155000Y-103615000D02*
X160545000Y-103615000D01*
X159155000Y-104885000D02*
X157245000Y-104885000D01*
X159405000Y-98025000D02*
X159405000Y-103615000D01*
X159445000Y-96415000D02*
X157245000Y-96415000D01*
X159445000Y-97715000D02*
X159445000Y-96415000D01*
X160295000Y-98025000D02*
X160295000Y-103615000D01*
X160545000Y-98025000D02*
X160545000Y-103615000D01*
%TO.C,C3*%
X112825000Y-94174437D02*
X112825000Y-99930000D01*
X112825000Y-99930000D02*
X115175000Y-99930000D01*
X113889437Y-93110000D02*
X112825000Y-94174437D01*
X113889437Y-93110000D02*
X115175000Y-93110000D01*
X118082500Y-92082500D02*
X118082500Y-92870000D01*
X118476250Y-92476250D02*
X117688750Y-92476250D01*
X118580563Y-93110000D02*
X117295000Y-93110000D01*
X118580563Y-93110000D02*
X119645000Y-94174437D01*
X119645000Y-94174437D02*
X119645000Y-99930000D01*
X119645000Y-99930000D02*
X117295000Y-99930000D01*
%TO.C,U2*%
X120645000Y-69495000D02*
X122010000Y-69495000D01*
X120645000Y-79895000D02*
X122010000Y-79895000D01*
X122010000Y-69495000D02*
X122010000Y-70445000D01*
X122010000Y-79895000D02*
X122010000Y-78945000D01*
X125175000Y-79375000D02*
X124495000Y-79375000D01*
X124835000Y-78905000D01*
X125175000Y-79375000D01*
G36*
X125175000Y-79375000D02*
G01*
X124495000Y-79375000D01*
X124835000Y-78905000D01*
X125175000Y-79375000D01*
G37*
%TO.C,J2*%
X117255000Y-61475000D02*
X117255000Y-63675000D01*
X117595000Y-61765000D02*
X117595000Y-63675000D01*
X117595000Y-61765000D02*
X125725000Y-61765000D01*
X117595000Y-63675000D02*
X117595000Y-68505000D01*
X118555000Y-61475000D02*
X117255000Y-61475000D01*
X118865000Y-60375000D02*
X124455000Y-60375000D01*
X118865000Y-60625000D02*
X124455000Y-60625000D01*
X118865000Y-61515000D02*
X124455000Y-61515000D01*
X118865000Y-61765000D02*
X118865000Y-60375000D01*
X121275000Y-68245000D02*
X122045000Y-68245000D01*
X121275000Y-68505000D02*
X117595000Y-68505000D01*
X121275000Y-68505000D02*
X121275000Y-68245000D01*
X122045000Y-68245000D02*
X122045000Y-68505000D01*
X122045000Y-68505000D02*
X125725000Y-68505000D01*
X124455000Y-61765000D02*
X124455000Y-60375000D01*
X125725000Y-61765000D02*
X125725000Y-63675000D01*
X125725000Y-68505000D02*
X125725000Y-63675000D01*
%TO.C,C1*%
X112005000Y-81855000D02*
X114355000Y-81855000D01*
X112005000Y-87610563D02*
X112005000Y-81855000D01*
X113069437Y-88675000D02*
X112005000Y-87610563D01*
X113069437Y-88675000D02*
X114355000Y-88675000D01*
X113173750Y-89308750D02*
X113961250Y-89308750D01*
X113567500Y-89702500D02*
X113567500Y-88915000D01*
X117760563Y-88675000D02*
X116475000Y-88675000D01*
X117760563Y-88675000D02*
X118825000Y-87610563D01*
X118825000Y-81855000D02*
X116475000Y-81855000D01*
X118825000Y-87610563D02*
X118825000Y-81855000D01*
%TO.C,U4*%
X95276000Y-76491000D02*
X96226000Y-76491000D01*
X95276000Y-77856000D02*
X95276000Y-76491000D01*
X105676000Y-76491000D02*
X104726000Y-76491000D01*
X105676000Y-77856000D02*
X105676000Y-76491000D01*
X105156000Y-74006000D02*
X104686000Y-73666000D01*
X105156000Y-73326000D01*
X105156000Y-74006000D01*
G36*
X105156000Y-74006000D02*
G01*
X104686000Y-73666000D01*
X105156000Y-73326000D01*
X105156000Y-74006000D01*
G37*
%TO.C,C5*%
X83413500Y-96323500D02*
X84201000Y-96323500D01*
X83807250Y-95929750D02*
X83807250Y-96717250D01*
X84441000Y-95825437D02*
X84441000Y-97111000D01*
X84441000Y-95825437D02*
X85505437Y-94761000D01*
X84441000Y-100516563D02*
X84441000Y-99231000D01*
X84441000Y-100516563D02*
X85505437Y-101581000D01*
X85505437Y-94761000D02*
X91261000Y-94761000D01*
X85505437Y-101581000D02*
X91261000Y-101581000D01*
X91261000Y-94761000D02*
X91261000Y-97111000D01*
X91261000Y-101581000D02*
X91261000Y-99231000D01*
%TO.C,D2*%
X107480000Y-112057500D02*
X107480000Y-116117500D01*
X109750000Y-112057500D02*
X107480000Y-112057500D01*
X109750000Y-116117500D02*
X109750000Y-112057500D01*
%TO.C,C2*%
X120155000Y-81855000D02*
X122505000Y-81855000D01*
X120155000Y-87610563D02*
X120155000Y-81855000D01*
X121219437Y-88675000D02*
X120155000Y-87610563D01*
X121219437Y-88675000D02*
X122505000Y-88675000D01*
X121323750Y-89308750D02*
X122111250Y-89308750D01*
X121717500Y-89702500D02*
X121717500Y-88915000D01*
X125910563Y-88675000D02*
X124625000Y-88675000D01*
X125910563Y-88675000D02*
X126975000Y-87610563D01*
X126975000Y-81855000D02*
X124625000Y-81855000D01*
X126975000Y-87610563D02*
X126975000Y-81855000D01*
%TO.C,C10*%
X140295000Y-103445000D02*
X140295000Y-106295000D01*
X140295000Y-112165000D02*
X140295000Y-109315000D01*
X147950563Y-103445000D02*
X140295000Y-103445000D01*
X147950563Y-112165000D02*
X140295000Y-112165000D01*
X149015000Y-104509437D02*
X147950563Y-103445000D01*
X149015000Y-104509437D02*
X149015000Y-106295000D01*
X149015000Y-111100563D02*
X147950563Y-112165000D01*
X149015000Y-111100563D02*
X149015000Y-109315000D01*
X149755000Y-110815000D02*
X149755000Y-109815000D01*
X150255000Y-110315000D02*
X149255000Y-110315000D01*
%TO.C,C4*%
X120445000Y-94174437D02*
X120445000Y-99930000D01*
X120445000Y-99930000D02*
X122795000Y-99930000D01*
X121509437Y-93110000D02*
X120445000Y-94174437D01*
X121509437Y-93110000D02*
X122795000Y-93110000D01*
X125702500Y-92082500D02*
X125702500Y-92870000D01*
X126096250Y-92476250D02*
X125308750Y-92476250D01*
X126200563Y-93110000D02*
X124915000Y-93110000D01*
X126200563Y-93110000D02*
X127265000Y-94174437D01*
X127265000Y-94174437D02*
X127265000Y-99930000D01*
X127265000Y-99930000D02*
X124915000Y-99930000D01*
%TO.C,C11*%
X133875000Y-97785580D02*
X133875000Y-97504420D01*
X134895000Y-97785580D02*
X134895000Y-97504420D01*
%TO.C,D3*%
X95711000Y-107196000D02*
X95711000Y-109466000D01*
X95711000Y-109466000D02*
X99771000Y-109466000D01*
X99771000Y-107196000D02*
X95711000Y-107196000D01*
%TO.C,C6*%
X83413500Y-105213500D02*
X84201000Y-105213500D01*
X83807250Y-104819750D02*
X83807250Y-105607250D01*
X84441000Y-104715437D02*
X84441000Y-106001000D01*
X84441000Y-104715437D02*
X85505437Y-103651000D01*
X84441000Y-109406563D02*
X84441000Y-108121000D01*
X84441000Y-109406563D02*
X85505437Y-110471000D01*
X85505437Y-103651000D02*
X91261000Y-103651000D01*
X85505437Y-110471000D02*
X91261000Y-110471000D01*
X91261000Y-103651000D02*
X91261000Y-106001000D01*
X91261000Y-110471000D02*
X91261000Y-108121000D01*
%TO.C,D1*%
X128780000Y-73915000D02*
X128780000Y-77975000D01*
X131050000Y-73915000D02*
X128780000Y-73915000D01*
X131050000Y-77975000D02*
X131050000Y-73915000D01*
%TO.C,C13*%
X151430000Y-82666252D02*
X151430000Y-82143748D01*
X152900000Y-82666252D02*
X152900000Y-82143748D01*
%TO.C,U1*%
X95081000Y-99061000D02*
X95081000Y-100426000D01*
X95081000Y-100426000D02*
X96031000Y-100426000D01*
X105481000Y-99061000D02*
X105481000Y-100426000D01*
X105481000Y-100426000D02*
X104531000Y-100426000D01*
X96071000Y-103251000D02*
X95601000Y-103591000D01*
X95601000Y-102911000D01*
X96071000Y-103251000D01*
G36*
X96071000Y-103251000D02*
G01*
X95601000Y-103591000D01*
X95601000Y-102911000D01*
X96071000Y-103251000D01*
G37*
%TO.C,D4*%
X100283000Y-65286000D02*
X100283000Y-67556000D01*
X100283000Y-67556000D02*
X104343000Y-67556000D01*
X104343000Y-65286000D02*
X100283000Y-65286000D01*
%TO.C,U5*%
X139345000Y-91580000D02*
X140295000Y-91580000D01*
X139345000Y-92945000D02*
X139345000Y-91580000D01*
X149745000Y-91580000D02*
X148795000Y-91580000D01*
X149745000Y-92945000D02*
X149745000Y-91580000D01*
X149225000Y-89095000D02*
X148755000Y-88755000D01*
X149225000Y-88415000D01*
X149225000Y-89095000D01*
G36*
X149225000Y-89095000D02*
G01*
X148755000Y-88755000D01*
X149225000Y-88415000D01*
X149225000Y-89095000D01*
G37*
%TO.C,C8*%
X83413500Y-87433500D02*
X84201000Y-87433500D01*
X83807250Y-87039750D02*
X83807250Y-87827250D01*
X84441000Y-86935437D02*
X84441000Y-88221000D01*
X84441000Y-86935437D02*
X85505437Y-85871000D01*
X84441000Y-91626563D02*
X84441000Y-90341000D01*
X84441000Y-91626563D02*
X85505437Y-92691000D01*
X85505437Y-85871000D02*
X91261000Y-85871000D01*
X85505437Y-92691000D02*
X91261000Y-92691000D01*
X91261000Y-85871000D02*
X91261000Y-88221000D01*
X91261000Y-92691000D02*
X91261000Y-90341000D01*
%TO.C,J3*%
X112805000Y-114550000D02*
X112805000Y-119380000D01*
X112805000Y-121290000D02*
X112805000Y-119380000D01*
X114075000Y-121290000D02*
X114075000Y-122680000D01*
X116485000Y-114550000D02*
X112805000Y-114550000D01*
X116485000Y-114810000D02*
X116485000Y-114550000D01*
X117255000Y-114550000D02*
X117255000Y-114810000D01*
X117255000Y-114550000D02*
X120935000Y-114550000D01*
X117255000Y-114810000D02*
X116485000Y-114810000D01*
X119665000Y-121290000D02*
X119665000Y-122680000D01*
X119665000Y-121540000D02*
X114075000Y-121540000D01*
X119665000Y-122430000D02*
X114075000Y-122430000D01*
X119665000Y-122680000D02*
X114075000Y-122680000D01*
X119975000Y-121580000D02*
X121275000Y-121580000D01*
X120935000Y-119380000D02*
X120935000Y-114550000D01*
X120935000Y-121290000D02*
X112805000Y-121290000D01*
X120935000Y-121290000D02*
X120935000Y-119380000D01*
X121275000Y-121580000D02*
X121275000Y-119380000D01*
%TO.C,C12*%
X133650000Y-82666252D02*
X133650000Y-82143748D01*
X135120000Y-82666252D02*
X135120000Y-82143748D01*
%TD*%
M02*
