%TF.GenerationSoftware,KiCad,Pcbnew,9.0.1*%
%TF.CreationDate,2025-05-28T17:40:13+05:30*%
%TF.ProjectId,3levelstepDownIter2,336c6576-656c-4737-9465-70446f776e49,rev?*%
%TF.SameCoordinates,Original*%
%TF.FileFunction,Copper,L1,Top*%
%TF.FilePolarity,Positive*%
%FSLAX46Y46*%
G04 Gerber Fmt 4.6, Leading zero omitted, Abs format (unit mm)*
G04 Created by KiCad (PCBNEW 9.0.1) date 2025-05-28 17:40:13*
%MOMM*%
%LPD*%
G01*
G04 APERTURE LIST*
G04 Aperture macros list*
%AMRoundRect*
0 Rectangle with rounded corners*
0 $1 Rounding radius*
0 $2 $3 $4 $5 $6 $7 $8 $9 X,Y pos of 4 corners*
0 Add a 4 corners polygon primitive as box body*
4,1,4,$2,$3,$4,$5,$6,$7,$8,$9,$2,$3,0*
0 Add four circle primitives for the rounded corners*
1,1,$1+$1,$2,$3*
1,1,$1+$1,$4,$5*
1,1,$1+$1,$6,$7*
1,1,$1+$1,$8,$9*
0 Add four rect primitives between the rounded corners*
20,1,$1+$1,$2,$3,$4,$5,0*
20,1,$1+$1,$4,$5,$6,$7,0*
20,1,$1+$1,$6,$7,$8,$9,0*
20,1,$1+$1,$8,$9,$2,$3,0*%
G04 Aperture macros list end*
%ADD10C,0.250000*%
%TA.AperFunction,NonConductor*%
%ADD11C,0.250000*%
%TD*%
%TA.AperFunction,ComponentPad*%
%ADD12C,3.000000*%
%TD*%
%TA.AperFunction,ComponentPad*%
%ADD13R,3.000000X3.000000*%
%TD*%
%TA.AperFunction,SMDPad,CuDef*%
%ADD14RoundRect,0.100000X0.100000X-0.130000X0.100000X0.130000X-0.100000X0.130000X-0.100000X-0.130000X0*%
%TD*%
%TA.AperFunction,SMDPad,CuDef*%
%ADD15RoundRect,0.250001X0.624999X-0.462499X0.624999X0.462499X-0.624999X0.462499X-0.624999X-0.462499X0*%
%TD*%
%TA.AperFunction,SMDPad,CuDef*%
%ADD16RoundRect,0.100000X-0.130000X-0.100000X0.130000X-0.100000X0.130000X0.100000X-0.130000X0.100000X0*%
%TD*%
%TA.AperFunction,SMDPad,CuDef*%
%ADD17RoundRect,0.100000X0.130000X0.100000X-0.130000X0.100000X-0.130000X-0.100000X0.130000X-0.100000X0*%
%TD*%
%TA.AperFunction,SMDPad,CuDef*%
%ADD18RoundRect,0.250000X-2.050000X-0.300000X2.050000X-0.300000X2.050000X0.300000X-2.050000X0.300000X0*%
%TD*%
%TA.AperFunction,SMDPad,CuDef*%
%ADD19RoundRect,0.250002X-4.449998X-5.149998X4.449998X-5.149998X4.449998X5.149998X-4.449998X5.149998X0*%
%TD*%
%TA.AperFunction,SMDPad,CuDef*%
%ADD20RoundRect,0.250000X-1.500000X-0.550000X1.500000X-0.550000X1.500000X0.550000X-1.500000X0.550000X0*%
%TD*%
%TA.AperFunction,SMDPad,CuDef*%
%ADD21RoundRect,0.250000X0.550000X-1.500000X0.550000X1.500000X-0.550000X1.500000X-0.550000X-1.500000X0*%
%TD*%
%TA.AperFunction,SMDPad,CuDef*%
%ADD22RoundRect,0.250000X-0.550000X1.500000X-0.550000X-1.500000X0.550000X-1.500000X0.550000X1.500000X0*%
%TD*%
%TA.AperFunction,SMDPad,CuDef*%
%ADD23RoundRect,0.250000X2.050000X0.300000X-2.050000X0.300000X-2.050000X-0.300000X2.050000X-0.300000X0*%
%TD*%
%TA.AperFunction,SMDPad,CuDef*%
%ADD24RoundRect,0.250002X4.449998X5.149998X-4.449998X5.149998X-4.449998X-5.149998X4.449998X-5.149998X0*%
%TD*%
%TA.AperFunction,SMDPad,CuDef*%
%ADD25RoundRect,0.250000X-0.300000X2.050000X-0.300000X-2.050000X0.300000X-2.050000X0.300000X2.050000X0*%
%TD*%
%TA.AperFunction,SMDPad,CuDef*%
%ADD26RoundRect,0.250002X-5.149998X4.449998X-5.149998X-4.449998X5.149998X-4.449998X5.149998X4.449998X0*%
%TD*%
%TA.AperFunction,SMDPad,CuDef*%
%ADD27RoundRect,0.250001X-0.624999X0.462499X-0.624999X-0.462499X0.624999X-0.462499X0.624999X0.462499X0*%
%TD*%
%TA.AperFunction,SMDPad,CuDef*%
%ADD28RoundRect,0.250000X1.950000X1.000000X-1.950000X1.000000X-1.950000X-1.000000X1.950000X-1.000000X0*%
%TD*%
%TA.AperFunction,SMDPad,CuDef*%
%ADD29RoundRect,0.225000X0.250000X-0.225000X0.250000X0.225000X-0.250000X0.225000X-0.250000X-0.225000X0*%
%TD*%
%TA.AperFunction,SMDPad,CuDef*%
%ADD30RoundRect,0.100000X-0.100000X0.130000X-0.100000X-0.130000X0.100000X-0.130000X0.100000X0.130000X0*%
%TD*%
%TA.AperFunction,SMDPad,CuDef*%
%ADD31RoundRect,0.250001X-0.462499X-0.624999X0.462499X-0.624999X0.462499X0.624999X-0.462499X0.624999X0*%
%TD*%
%TA.AperFunction,SMDPad,CuDef*%
%ADD32RoundRect,0.250000X0.475000X-0.250000X0.475000X0.250000X-0.475000X0.250000X-0.475000X-0.250000X0*%
%TD*%
%TA.AperFunction,SMDPad,CuDef*%
%ADD33RoundRect,0.250000X0.300000X-2.050000X0.300000X2.050000X-0.300000X2.050000X-0.300000X-2.050000X0*%
%TD*%
%TA.AperFunction,SMDPad,CuDef*%
%ADD34RoundRect,0.250002X5.149998X-4.449998X5.149998X4.449998X-5.149998X4.449998X-5.149998X-4.449998X0*%
%TD*%
%TA.AperFunction,ViaPad*%
%ADD35C,0.600000*%
%TD*%
%TA.AperFunction,Conductor*%
%ADD36C,1.400000*%
%TD*%
G04 APERTURE END LIST*
D10*
D11*
X83726377Y-65912238D02*
X83631139Y-65864619D01*
X83631139Y-65864619D02*
X83488282Y-65864619D01*
X83488282Y-65864619D02*
X83345425Y-65912238D01*
X83345425Y-65912238D02*
X83250187Y-66007476D01*
X83250187Y-66007476D02*
X83202568Y-66102714D01*
X83202568Y-66102714D02*
X83154949Y-66293190D01*
X83154949Y-66293190D02*
X83154949Y-66436047D01*
X83154949Y-66436047D02*
X83202568Y-66626523D01*
X83202568Y-66626523D02*
X83250187Y-66721761D01*
X83250187Y-66721761D02*
X83345425Y-66817000D01*
X83345425Y-66817000D02*
X83488282Y-66864619D01*
X83488282Y-66864619D02*
X83583520Y-66864619D01*
X83583520Y-66864619D02*
X83726377Y-66817000D01*
X83726377Y-66817000D02*
X83773996Y-66769380D01*
X83773996Y-66769380D02*
X83773996Y-66436047D01*
X83773996Y-66436047D02*
X83583520Y-66436047D01*
X84202568Y-66864619D02*
X84202568Y-66197952D01*
X84202568Y-65864619D02*
X84154949Y-65912238D01*
X84154949Y-65912238D02*
X84202568Y-65959857D01*
X84202568Y-65959857D02*
X84250187Y-65912238D01*
X84250187Y-65912238D02*
X84202568Y-65864619D01*
X84202568Y-65864619D02*
X84202568Y-65959857D01*
X84678758Y-66864619D02*
X84678758Y-66197952D01*
X84678758Y-66293190D02*
X84726377Y-66245571D01*
X84726377Y-66245571D02*
X84821615Y-66197952D01*
X84821615Y-66197952D02*
X84964472Y-66197952D01*
X84964472Y-66197952D02*
X85059710Y-66245571D01*
X85059710Y-66245571D02*
X85107329Y-66340809D01*
X85107329Y-66340809D02*
X85107329Y-66864619D01*
X85107329Y-66340809D02*
X85154948Y-66245571D01*
X85154948Y-66245571D02*
X85250186Y-66197952D01*
X85250186Y-66197952D02*
X85393043Y-66197952D01*
X85393043Y-66197952D02*
X85488282Y-66245571D01*
X85488282Y-66245571D02*
X85535901Y-66340809D01*
X85535901Y-66340809D02*
X85535901Y-66864619D01*
X86012091Y-66864619D02*
X86012091Y-65864619D01*
X86012091Y-66245571D02*
X86107329Y-66197952D01*
X86107329Y-66197952D02*
X86297805Y-66197952D01*
X86297805Y-66197952D02*
X86393043Y-66245571D01*
X86393043Y-66245571D02*
X86440662Y-66293190D01*
X86440662Y-66293190D02*
X86488281Y-66388428D01*
X86488281Y-66388428D02*
X86488281Y-66674142D01*
X86488281Y-66674142D02*
X86440662Y-66769380D01*
X86440662Y-66769380D02*
X86393043Y-66817000D01*
X86393043Y-66817000D02*
X86297805Y-66864619D01*
X86297805Y-66864619D02*
X86107329Y-66864619D01*
X86107329Y-66864619D02*
X86012091Y-66817000D01*
X87345424Y-66864619D02*
X87345424Y-66340809D01*
X87345424Y-66340809D02*
X87297805Y-66245571D01*
X87297805Y-66245571D02*
X87202567Y-66197952D01*
X87202567Y-66197952D02*
X87012091Y-66197952D01*
X87012091Y-66197952D02*
X86916853Y-66245571D01*
X87345424Y-66817000D02*
X87250186Y-66864619D01*
X87250186Y-66864619D02*
X87012091Y-66864619D01*
X87012091Y-66864619D02*
X86916853Y-66817000D01*
X86916853Y-66817000D02*
X86869234Y-66721761D01*
X86869234Y-66721761D02*
X86869234Y-66626523D01*
X86869234Y-66626523D02*
X86916853Y-66531285D01*
X86916853Y-66531285D02*
X87012091Y-66483666D01*
X87012091Y-66483666D02*
X87250186Y-66483666D01*
X87250186Y-66483666D02*
X87345424Y-66436047D01*
X87964472Y-66864619D02*
X87869234Y-66817000D01*
X87869234Y-66817000D02*
X87821615Y-66721761D01*
X87821615Y-66721761D02*
X87821615Y-65864619D01*
D10*
D11*
X103535901Y-61040809D02*
X103202568Y-61040809D01*
X103202568Y-61564619D02*
X103202568Y-60564619D01*
X103202568Y-60564619D02*
X103678758Y-60564619D01*
X104202568Y-61564619D02*
X104107330Y-61517000D01*
X104107330Y-61517000D02*
X104059711Y-61421761D01*
X104059711Y-61421761D02*
X104059711Y-60564619D01*
X104583521Y-61564619D02*
X104583521Y-60897952D01*
X104583521Y-60564619D02*
X104535902Y-60612238D01*
X104535902Y-60612238D02*
X104583521Y-60659857D01*
X104583521Y-60659857D02*
X104631140Y-60612238D01*
X104631140Y-60612238D02*
X104583521Y-60564619D01*
X104583521Y-60564619D02*
X104583521Y-60659857D01*
X105488282Y-60897952D02*
X105488282Y-61707476D01*
X105488282Y-61707476D02*
X105440663Y-61802714D01*
X105440663Y-61802714D02*
X105393044Y-61850333D01*
X105393044Y-61850333D02*
X105297806Y-61897952D01*
X105297806Y-61897952D02*
X105154949Y-61897952D01*
X105154949Y-61897952D02*
X105059711Y-61850333D01*
X105488282Y-61517000D02*
X105393044Y-61564619D01*
X105393044Y-61564619D02*
X105202568Y-61564619D01*
X105202568Y-61564619D02*
X105107330Y-61517000D01*
X105107330Y-61517000D02*
X105059711Y-61469380D01*
X105059711Y-61469380D02*
X105012092Y-61374142D01*
X105012092Y-61374142D02*
X105012092Y-61088428D01*
X105012092Y-61088428D02*
X105059711Y-60993190D01*
X105059711Y-60993190D02*
X105107330Y-60945571D01*
X105107330Y-60945571D02*
X105202568Y-60897952D01*
X105202568Y-60897952D02*
X105393044Y-60897952D01*
X105393044Y-60897952D02*
X105488282Y-60945571D01*
X105964473Y-61564619D02*
X105964473Y-60564619D01*
X106393044Y-61564619D02*
X106393044Y-61040809D01*
X106393044Y-61040809D02*
X106345425Y-60945571D01*
X106345425Y-60945571D02*
X106250187Y-60897952D01*
X106250187Y-60897952D02*
X106107330Y-60897952D01*
X106107330Y-60897952D02*
X106012092Y-60945571D01*
X106012092Y-60945571D02*
X105964473Y-60993190D01*
X106726378Y-60897952D02*
X107107330Y-60897952D01*
X106869235Y-60564619D02*
X106869235Y-61421761D01*
X106869235Y-61421761D02*
X106916854Y-61517000D01*
X106916854Y-61517000D02*
X107012092Y-61564619D01*
X107012092Y-61564619D02*
X107107330Y-61564619D01*
X108631140Y-61517000D02*
X108535902Y-61564619D01*
X108535902Y-61564619D02*
X108345426Y-61564619D01*
X108345426Y-61564619D02*
X108250188Y-61517000D01*
X108250188Y-61517000D02*
X108202569Y-61469380D01*
X108202569Y-61469380D02*
X108154950Y-61374142D01*
X108154950Y-61374142D02*
X108154950Y-61088428D01*
X108154950Y-61088428D02*
X108202569Y-60993190D01*
X108202569Y-60993190D02*
X108250188Y-60945571D01*
X108250188Y-60945571D02*
X108345426Y-60897952D01*
X108345426Y-60897952D02*
X108535902Y-60897952D01*
X108535902Y-60897952D02*
X108631140Y-60945571D01*
X109202569Y-61564619D02*
X109107331Y-61517000D01*
X109107331Y-61517000D02*
X109059712Y-61469380D01*
X109059712Y-61469380D02*
X109012093Y-61374142D01*
X109012093Y-61374142D02*
X109012093Y-61088428D01*
X109012093Y-61088428D02*
X109059712Y-60993190D01*
X109059712Y-60993190D02*
X109107331Y-60945571D01*
X109107331Y-60945571D02*
X109202569Y-60897952D01*
X109202569Y-60897952D02*
X109345426Y-60897952D01*
X109345426Y-60897952D02*
X109440664Y-60945571D01*
X109440664Y-60945571D02*
X109488283Y-60993190D01*
X109488283Y-60993190D02*
X109535902Y-61088428D01*
X109535902Y-61088428D02*
X109535902Y-61374142D01*
X109535902Y-61374142D02*
X109488283Y-61469380D01*
X109488283Y-61469380D02*
X109440664Y-61517000D01*
X109440664Y-61517000D02*
X109345426Y-61564619D01*
X109345426Y-61564619D02*
X109202569Y-61564619D01*
X109964474Y-60897952D02*
X109964474Y-61564619D01*
X109964474Y-60993190D02*
X110012093Y-60945571D01*
X110012093Y-60945571D02*
X110107331Y-60897952D01*
X110107331Y-60897952D02*
X110250188Y-60897952D01*
X110250188Y-60897952D02*
X110345426Y-60945571D01*
X110345426Y-60945571D02*
X110393045Y-61040809D01*
X110393045Y-61040809D02*
X110393045Y-61564619D01*
X110726379Y-60897952D02*
X111107331Y-60897952D01*
X110869236Y-60564619D02*
X110869236Y-61421761D01*
X110869236Y-61421761D02*
X110916855Y-61517000D01*
X110916855Y-61517000D02*
X111012093Y-61564619D01*
X111012093Y-61564619D02*
X111107331Y-61564619D01*
X111440665Y-61564619D02*
X111440665Y-60897952D01*
X111440665Y-61088428D02*
X111488284Y-60993190D01*
X111488284Y-60993190D02*
X111535903Y-60945571D01*
X111535903Y-60945571D02*
X111631141Y-60897952D01*
X111631141Y-60897952D02*
X111726379Y-60897952D01*
X112202570Y-61564619D02*
X112107332Y-61517000D01*
X112107332Y-61517000D02*
X112059713Y-61469380D01*
X112059713Y-61469380D02*
X112012094Y-61374142D01*
X112012094Y-61374142D02*
X112012094Y-61088428D01*
X112012094Y-61088428D02*
X112059713Y-60993190D01*
X112059713Y-60993190D02*
X112107332Y-60945571D01*
X112107332Y-60945571D02*
X112202570Y-60897952D01*
X112202570Y-60897952D02*
X112345427Y-60897952D01*
X112345427Y-60897952D02*
X112440665Y-60945571D01*
X112440665Y-60945571D02*
X112488284Y-60993190D01*
X112488284Y-60993190D02*
X112535903Y-61088428D01*
X112535903Y-61088428D02*
X112535903Y-61374142D01*
X112535903Y-61374142D02*
X112488284Y-61469380D01*
X112488284Y-61469380D02*
X112440665Y-61517000D01*
X112440665Y-61517000D02*
X112345427Y-61564619D01*
X112345427Y-61564619D02*
X112202570Y-61564619D01*
X113107332Y-61564619D02*
X113012094Y-61517000D01*
X113012094Y-61517000D02*
X112964475Y-61421761D01*
X112964475Y-61421761D02*
X112964475Y-60564619D01*
X113631142Y-61564619D02*
X113535904Y-61517000D01*
X113535904Y-61517000D02*
X113488285Y-61421761D01*
X113488285Y-61421761D02*
X113488285Y-60564619D01*
X114393047Y-61517000D02*
X114297809Y-61564619D01*
X114297809Y-61564619D02*
X114107333Y-61564619D01*
X114107333Y-61564619D02*
X114012095Y-61517000D01*
X114012095Y-61517000D02*
X113964476Y-61421761D01*
X113964476Y-61421761D02*
X113964476Y-61040809D01*
X113964476Y-61040809D02*
X114012095Y-60945571D01*
X114012095Y-60945571D02*
X114107333Y-60897952D01*
X114107333Y-60897952D02*
X114297809Y-60897952D01*
X114297809Y-60897952D02*
X114393047Y-60945571D01*
X114393047Y-60945571D02*
X114440666Y-61040809D01*
X114440666Y-61040809D02*
X114440666Y-61136047D01*
X114440666Y-61136047D02*
X113964476Y-61231285D01*
X114869238Y-61564619D02*
X114869238Y-60897952D01*
X114869238Y-61088428D02*
X114916857Y-60993190D01*
X114916857Y-60993190D02*
X114964476Y-60945571D01*
X114964476Y-60945571D02*
X115059714Y-60897952D01*
X115059714Y-60897952D02*
X115154952Y-60897952D01*
D10*
D11*
X151569380Y-91226003D02*
X151617000Y-91273622D01*
X151617000Y-91273622D02*
X151664619Y-91416479D01*
X151664619Y-91416479D02*
X151664619Y-91511717D01*
X151664619Y-91511717D02*
X151617000Y-91654574D01*
X151617000Y-91654574D02*
X151521761Y-91749812D01*
X151521761Y-91749812D02*
X151426523Y-91797431D01*
X151426523Y-91797431D02*
X151236047Y-91845050D01*
X151236047Y-91845050D02*
X151093190Y-91845050D01*
X151093190Y-91845050D02*
X150902714Y-91797431D01*
X150902714Y-91797431D02*
X150807476Y-91749812D01*
X150807476Y-91749812D02*
X150712238Y-91654574D01*
X150712238Y-91654574D02*
X150664619Y-91511717D01*
X150664619Y-91511717D02*
X150664619Y-91416479D01*
X150664619Y-91416479D02*
X150712238Y-91273622D01*
X150712238Y-91273622D02*
X150759857Y-91226003D01*
X151664619Y-90368860D02*
X151140809Y-90368860D01*
X151140809Y-90368860D02*
X151045571Y-90416479D01*
X151045571Y-90416479D02*
X150997952Y-90511717D01*
X150997952Y-90511717D02*
X150997952Y-90702193D01*
X150997952Y-90702193D02*
X151045571Y-90797431D01*
X151617000Y-90368860D02*
X151664619Y-90464098D01*
X151664619Y-90464098D02*
X151664619Y-90702193D01*
X151664619Y-90702193D02*
X151617000Y-90797431D01*
X151617000Y-90797431D02*
X151521761Y-90845050D01*
X151521761Y-90845050D02*
X151426523Y-90845050D01*
X151426523Y-90845050D02*
X151331285Y-90797431D01*
X151331285Y-90797431D02*
X151283666Y-90702193D01*
X151283666Y-90702193D02*
X151283666Y-90464098D01*
X151283666Y-90464098D02*
X151236047Y-90368860D01*
X151664619Y-89892669D02*
X150997952Y-89892669D01*
X151093190Y-89892669D02*
X151045571Y-89845050D01*
X151045571Y-89845050D02*
X150997952Y-89749812D01*
X150997952Y-89749812D02*
X150997952Y-89606955D01*
X150997952Y-89606955D02*
X151045571Y-89511717D01*
X151045571Y-89511717D02*
X151140809Y-89464098D01*
X151140809Y-89464098D02*
X151664619Y-89464098D01*
X151140809Y-89464098D02*
X151045571Y-89416479D01*
X151045571Y-89416479D02*
X150997952Y-89321241D01*
X150997952Y-89321241D02*
X150997952Y-89178384D01*
X150997952Y-89178384D02*
X151045571Y-89083145D01*
X151045571Y-89083145D02*
X151140809Y-89035526D01*
X151140809Y-89035526D02*
X151664619Y-89035526D01*
X151617000Y-88178384D02*
X151664619Y-88273622D01*
X151664619Y-88273622D02*
X151664619Y-88464098D01*
X151664619Y-88464098D02*
X151617000Y-88559336D01*
X151617000Y-88559336D02*
X151521761Y-88606955D01*
X151521761Y-88606955D02*
X151140809Y-88606955D01*
X151140809Y-88606955D02*
X151045571Y-88559336D01*
X151045571Y-88559336D02*
X150997952Y-88464098D01*
X150997952Y-88464098D02*
X150997952Y-88273622D01*
X150997952Y-88273622D02*
X151045571Y-88178384D01*
X151045571Y-88178384D02*
X151140809Y-88130765D01*
X151140809Y-88130765D02*
X151236047Y-88130765D01*
X151236047Y-88130765D02*
X151331285Y-88606955D01*
X151664619Y-87702193D02*
X150997952Y-87702193D01*
X151188428Y-87702193D02*
X151093190Y-87654574D01*
X151093190Y-87654574D02*
X151045571Y-87606955D01*
X151045571Y-87606955D02*
X150997952Y-87511717D01*
X150997952Y-87511717D02*
X150997952Y-87416479D01*
X151664619Y-86654574D02*
X151140809Y-86654574D01*
X151140809Y-86654574D02*
X151045571Y-86702193D01*
X151045571Y-86702193D02*
X150997952Y-86797431D01*
X150997952Y-86797431D02*
X150997952Y-86987907D01*
X150997952Y-86987907D02*
X151045571Y-87083145D01*
X151617000Y-86654574D02*
X151664619Y-86749812D01*
X151664619Y-86749812D02*
X151664619Y-86987907D01*
X151664619Y-86987907D02*
X151617000Y-87083145D01*
X151617000Y-87083145D02*
X151521761Y-87130764D01*
X151521761Y-87130764D02*
X151426523Y-87130764D01*
X151426523Y-87130764D02*
X151331285Y-87083145D01*
X151331285Y-87083145D02*
X151283666Y-86987907D01*
X151283666Y-86987907D02*
X151283666Y-86749812D01*
X151283666Y-86749812D02*
X151236047Y-86654574D01*
D10*
D11*
X122202568Y-122164619D02*
X122202568Y-121164619D01*
X122202568Y-121164619D02*
X122535901Y-121878904D01*
X122535901Y-121878904D02*
X122869234Y-121164619D01*
X122869234Y-121164619D02*
X122869234Y-122164619D01*
X123726377Y-122117000D02*
X123631139Y-122164619D01*
X123631139Y-122164619D02*
X123440663Y-122164619D01*
X123440663Y-122164619D02*
X123345425Y-122117000D01*
X123345425Y-122117000D02*
X123297806Y-122021761D01*
X123297806Y-122021761D02*
X123297806Y-121640809D01*
X123297806Y-121640809D02*
X123345425Y-121545571D01*
X123345425Y-121545571D02*
X123440663Y-121497952D01*
X123440663Y-121497952D02*
X123631139Y-121497952D01*
X123631139Y-121497952D02*
X123726377Y-121545571D01*
X123726377Y-121545571D02*
X123773996Y-121640809D01*
X123773996Y-121640809D02*
X123773996Y-121736047D01*
X123773996Y-121736047D02*
X123297806Y-121831285D01*
X124154949Y-122117000D02*
X124250187Y-122164619D01*
X124250187Y-122164619D02*
X124440663Y-122164619D01*
X124440663Y-122164619D02*
X124535901Y-122117000D01*
X124535901Y-122117000D02*
X124583520Y-122021761D01*
X124583520Y-122021761D02*
X124583520Y-121974142D01*
X124583520Y-121974142D02*
X124535901Y-121878904D01*
X124535901Y-121878904D02*
X124440663Y-121831285D01*
X124440663Y-121831285D02*
X124297806Y-121831285D01*
X124297806Y-121831285D02*
X124202568Y-121783666D01*
X124202568Y-121783666D02*
X124154949Y-121688428D01*
X124154949Y-121688428D02*
X124154949Y-121640809D01*
X124154949Y-121640809D02*
X124202568Y-121545571D01*
X124202568Y-121545571D02*
X124297806Y-121497952D01*
X124297806Y-121497952D02*
X124440663Y-121497952D01*
X124440663Y-121497952D02*
X124535901Y-121545571D01*
X125012092Y-122164619D02*
X125012092Y-121164619D01*
X125440663Y-122164619D02*
X125440663Y-121640809D01*
X125440663Y-121640809D02*
X125393044Y-121545571D01*
X125393044Y-121545571D02*
X125297806Y-121497952D01*
X125297806Y-121497952D02*
X125154949Y-121497952D01*
X125154949Y-121497952D02*
X125059711Y-121545571D01*
X125059711Y-121545571D02*
X125012092Y-121593190D01*
X127250187Y-122164619D02*
X126916854Y-121688428D01*
X126678759Y-122164619D02*
X126678759Y-121164619D01*
X126678759Y-121164619D02*
X127059711Y-121164619D01*
X127059711Y-121164619D02*
X127154949Y-121212238D01*
X127154949Y-121212238D02*
X127202568Y-121259857D01*
X127202568Y-121259857D02*
X127250187Y-121355095D01*
X127250187Y-121355095D02*
X127250187Y-121497952D01*
X127250187Y-121497952D02*
X127202568Y-121593190D01*
X127202568Y-121593190D02*
X127154949Y-121640809D01*
X127154949Y-121640809D02*
X127059711Y-121688428D01*
X127059711Y-121688428D02*
X126678759Y-121688428D01*
X128107330Y-122164619D02*
X128107330Y-121640809D01*
X128107330Y-121640809D02*
X128059711Y-121545571D01*
X128059711Y-121545571D02*
X127964473Y-121497952D01*
X127964473Y-121497952D02*
X127773997Y-121497952D01*
X127773997Y-121497952D02*
X127678759Y-121545571D01*
X128107330Y-122117000D02*
X128012092Y-122164619D01*
X128012092Y-122164619D02*
X127773997Y-122164619D01*
X127773997Y-122164619D02*
X127678759Y-122117000D01*
X127678759Y-122117000D02*
X127631140Y-122021761D01*
X127631140Y-122021761D02*
X127631140Y-121926523D01*
X127631140Y-121926523D02*
X127678759Y-121831285D01*
X127678759Y-121831285D02*
X127773997Y-121783666D01*
X127773997Y-121783666D02*
X128012092Y-121783666D01*
X128012092Y-121783666D02*
X128107330Y-121736047D01*
X129012092Y-122164619D02*
X129012092Y-121164619D01*
X129012092Y-122117000D02*
X128916854Y-122164619D01*
X128916854Y-122164619D02*
X128726378Y-122164619D01*
X128726378Y-122164619D02*
X128631140Y-122117000D01*
X128631140Y-122117000D02*
X128583521Y-122069380D01*
X128583521Y-122069380D02*
X128535902Y-121974142D01*
X128535902Y-121974142D02*
X128535902Y-121688428D01*
X128535902Y-121688428D02*
X128583521Y-121593190D01*
X128583521Y-121593190D02*
X128631140Y-121545571D01*
X128631140Y-121545571D02*
X128726378Y-121497952D01*
X128726378Y-121497952D02*
X128916854Y-121497952D01*
X128916854Y-121497952D02*
X129012092Y-121545571D01*
X129488283Y-122164619D02*
X129488283Y-121497952D01*
X129488283Y-121164619D02*
X129440664Y-121212238D01*
X129440664Y-121212238D02*
X129488283Y-121259857D01*
X129488283Y-121259857D02*
X129535902Y-121212238D01*
X129535902Y-121212238D02*
X129488283Y-121164619D01*
X129488283Y-121164619D02*
X129488283Y-121259857D01*
X130107330Y-122164619D02*
X130012092Y-122117000D01*
X130012092Y-122117000D02*
X129964473Y-122069380D01*
X129964473Y-122069380D02*
X129916854Y-121974142D01*
X129916854Y-121974142D02*
X129916854Y-121688428D01*
X129916854Y-121688428D02*
X129964473Y-121593190D01*
X129964473Y-121593190D02*
X130012092Y-121545571D01*
X130012092Y-121545571D02*
X130107330Y-121497952D01*
X130107330Y-121497952D02*
X130250187Y-121497952D01*
X130250187Y-121497952D02*
X130345425Y-121545571D01*
X130345425Y-121545571D02*
X130393044Y-121593190D01*
X130393044Y-121593190D02*
X130440663Y-121688428D01*
X130440663Y-121688428D02*
X130440663Y-121974142D01*
X130440663Y-121974142D02*
X130393044Y-122069380D01*
X130393044Y-122069380D02*
X130345425Y-122117000D01*
X130345425Y-122117000D02*
X130250187Y-122164619D01*
X130250187Y-122164619D02*
X130107330Y-122164619D01*
D12*
%TO.P,J4,2,Pin_2*%
%TO.N,GND*%
X82931000Y-70231000D03*
D13*
%TO.P,J4,1,Pin_1*%
%TO.N,Net-(J4-Pin_1)*%
X82931000Y-74111000D03*
%TD*%
D14*
%TO.P,L5,1,1*%
%TO.N,Net-(D5-K)*%
X143275000Y-81455000D03*
%TO.P,L5,2,2*%
%TO.N,Net-(J5-Pin_1)*%
X143275000Y-80815000D03*
%TD*%
D15*
%TO.P,D5,1,K*%
%TO.N,Net-(D5-K)*%
X158515000Y-83892500D03*
%TO.P,D5,2,A*%
%TO.N,GND*%
X158515000Y-80917500D03*
%TD*%
D16*
%TO.P,R1,1*%
%TO.N,Net-(J5-Pin_1)*%
X146765000Y-82060000D03*
%TO.P,R1,2*%
%TO.N,Net-(U5-FB)*%
X147405000Y-82060000D03*
%TD*%
D17*
%TO.P,L3,1,1*%
%TO.N,Net-(D3-K)*%
X103251000Y-108331000D03*
%TO.P,L3,2,2*%
%TO.N,Net-(J4-Pin_1)*%
X102611000Y-108331000D03*
%TD*%
D13*
%TO.P,J5,1,Pin_1*%
%TO.N,Net-(J5-Pin_1)*%
X157245000Y-88755000D03*
D12*
%TO.P,J5,2,Pin_2*%
%TO.N,GND*%
X157245000Y-92635000D03*
%TD*%
D18*
%TO.P,U3,1,VIN*%
%TO.N,Net-(J1-Pin_1)*%
X114270000Y-104550000D03*
%TO.P,U3,2,OUT*%
%TO.N,Net-(D2-K)*%
X114270000Y-106250000D03*
%TO.P,U3,3,GND*%
%TO.N,GND*%
X114270000Y-107950000D03*
D19*
X123420000Y-107950000D03*
D18*
%TO.P,U3,4,FB*%
%TO.N,Net-(J3-Pin_1)*%
X114270000Y-109650000D03*
%TO.P,U3,5,~{ON}/OFF*%
%TO.N,GND*%
X114270000Y-111350000D03*
%TD*%
D20*
%TO.P,C7,1*%
%TO.N,Net-(J1-Pin_1)*%
X85151000Y-80391000D03*
%TO.P,C7,2*%
%TO.N,GND*%
X90551000Y-80391000D03*
%TD*%
D21*
%TO.P,C9,1*%
%TO.N,Net-(J1-Pin_1)*%
X134385000Y-92725000D03*
%TO.P,C9,2*%
%TO.N,GND*%
X134385000Y-87325000D03*
%TD*%
D13*
%TO.P,J1,1,Pin_1*%
%TO.N,Net-(J1-Pin_1)*%
X157245000Y-98915000D03*
D12*
%TO.P,J1,2,Pin_2*%
%TO.N,GND*%
X157245000Y-102795000D03*
%TD*%
D14*
%TO.P,R2,1*%
%TO.N,Net-(U5-FB)*%
X139465000Y-82380000D03*
%TO.P,R2,2*%
%TO.N,GND*%
X139465000Y-81740000D03*
%TD*%
D22*
%TO.P,C3,1*%
%TO.N,Net-(J1-Pin_1)*%
X116235000Y-93820000D03*
%TO.P,C3,2*%
%TO.N,GND*%
X116235000Y-99220000D03*
%TD*%
D23*
%TO.P,U2,1,VIN*%
%TO.N,Net-(J1-Pin_1)*%
X124835000Y-78095000D03*
%TO.P,U2,2,OUT*%
%TO.N,Net-(D1-K)*%
X124835000Y-76395000D03*
%TO.P,U2,3,GND*%
%TO.N,GND*%
X124835000Y-74695000D03*
D24*
X115685000Y-74695000D03*
D23*
%TO.P,U2,4,FB*%
%TO.N,Net-(J2-Pin_1)*%
X124835000Y-72995000D03*
%TO.P,U2,5,~{ON}/OFF*%
%TO.N,GND*%
X124835000Y-71295000D03*
%TD*%
D13*
%TO.P,J2,1,Pin_1*%
%TO.N,Net-(J2-Pin_1)*%
X119755000Y-63675000D03*
D12*
%TO.P,J2,2,Pin_2*%
%TO.N,GND*%
X123635000Y-63675000D03*
%TD*%
D21*
%TO.P,C1,1*%
%TO.N,Net-(J1-Pin_1)*%
X115415000Y-87965000D03*
%TO.P,C1,2*%
%TO.N,GND*%
X115415000Y-82565000D03*
%TD*%
D16*
%TO.P,L4,1,1*%
%TO.N,Net-(D4-K)*%
X97506000Y-66421000D03*
%TO.P,L4,2,2*%
%TO.N,Net-(J4-Pin_1)*%
X98146000Y-66421000D03*
%TD*%
D25*
%TO.P,U4,1,VIN*%
%TO.N,Net-(J1-Pin_1)*%
X103876000Y-73666000D03*
%TO.P,U4,2,OUT*%
%TO.N,Net-(D4-K)*%
X102176000Y-73666000D03*
%TO.P,U4,3,GND*%
%TO.N,GND*%
X100476000Y-73666000D03*
D26*
X100476000Y-82816000D03*
D25*
%TO.P,U4,4,FB*%
%TO.N,Net-(J4-Pin_1)*%
X98776000Y-73666000D03*
%TO.P,U4,5,~{ON}/OFF*%
%TO.N,GND*%
X97076000Y-73666000D03*
%TD*%
D20*
%TO.P,C5,1*%
%TO.N,Net-(J1-Pin_1)*%
X85151000Y-98171000D03*
%TO.P,C5,2*%
%TO.N,GND*%
X90551000Y-98171000D03*
%TD*%
D27*
%TO.P,D2,1,K*%
%TO.N,Net-(D2-K)*%
X108615000Y-113030000D03*
%TO.P,D2,2,A*%
%TO.N,GND*%
X108615000Y-116005000D03*
%TD*%
D21*
%TO.P,C2,1*%
%TO.N,Net-(J2-Pin_1)*%
X123565000Y-87965000D03*
%TO.P,C2,2*%
%TO.N,GND*%
X123565000Y-82565000D03*
%TD*%
D28*
%TO.P,C10,1*%
%TO.N,Net-(J5-Pin_1)*%
X148355000Y-107805000D03*
%TO.P,C10,2*%
%TO.N,GND*%
X140955000Y-107805000D03*
%TD*%
D22*
%TO.P,C4,1*%
%TO.N,Net-(J3-Pin_1)*%
X123855000Y-93820000D03*
%TO.P,C4,2*%
%TO.N,GND*%
X123855000Y-99220000D03*
%TD*%
D29*
%TO.P,C11,1*%
%TO.N,Net-(U5-VC)*%
X134385000Y-98420000D03*
%TO.P,C11,2*%
%TO.N,GND*%
X134385000Y-96870000D03*
%TD*%
D30*
%TO.P,L2,1,1*%
%TO.N,Net-(D2-K)*%
X108615000Y-103475000D03*
%TO.P,L2,2,2*%
%TO.N,Net-(J3-Pin_1)*%
X108615000Y-104115000D03*
%TD*%
D31*
%TO.P,D3,1,K*%
%TO.N,Net-(D3-K)*%
X96683500Y-108331000D03*
%TO.P,D3,2,A*%
%TO.N,GND*%
X99658500Y-108331000D03*
%TD*%
D20*
%TO.P,C6,1*%
%TO.N,Net-(J4-Pin_1)*%
X85151000Y-107061000D03*
%TO.P,C6,2*%
%TO.N,GND*%
X90551000Y-107061000D03*
%TD*%
D27*
%TO.P,D1,1,K*%
%TO.N,Net-(D1-K)*%
X129915000Y-74887500D03*
%TO.P,D1,2,A*%
%TO.N,GND*%
X129915000Y-77862500D03*
%TD*%
D32*
%TO.P,C13,1*%
%TO.N,Net-(J5-Pin_1)*%
X152165000Y-83355000D03*
%TO.P,C13,2*%
%TO.N,GND*%
X152165000Y-81455000D03*
%TD*%
D33*
%TO.P,U1,1,VIN*%
%TO.N,Net-(J1-Pin_1)*%
X96881000Y-103251000D03*
%TO.P,U1,2,OUT*%
%TO.N,Net-(D3-K)*%
X98581000Y-103251000D03*
%TO.P,U1,3,GND*%
%TO.N,GND*%
X100281000Y-103251000D03*
D34*
X100281000Y-94101000D03*
D33*
%TO.P,U1,4,FB*%
%TO.N,Net-(J4-Pin_1)*%
X101981000Y-103251000D03*
%TO.P,U1,5,~{ON}/OFF*%
%TO.N,GND*%
X103681000Y-103251000D03*
%TD*%
D31*
%TO.P,D4,1,K*%
%TO.N,Net-(D4-K)*%
X101255500Y-66421000D03*
%TO.P,D4,2,A*%
%TO.N,GND*%
X104230500Y-66421000D03*
%TD*%
D25*
%TO.P,U5,1,GND*%
%TO.N,GND*%
X147945000Y-88755000D03*
%TO.P,U5,2,FB*%
%TO.N,Net-(U5-FB)*%
X146245000Y-88755000D03*
%TO.P,U5,3,SW*%
%TO.N,Net-(D5-K)*%
X144545000Y-88755000D03*
D26*
X144545000Y-97905000D03*
D25*
%TO.P,U5,4,VC*%
%TO.N,Net-(U5-VC)*%
X142845000Y-88755000D03*
%TO.P,U5,5,VIN*%
%TO.N,Net-(J1-Pin_1)*%
X141145000Y-88755000D03*
%TD*%
D30*
%TO.P,L1,1,1*%
%TO.N,Net-(D1-K)*%
X129915000Y-71320000D03*
%TO.P,L1,2,2*%
%TO.N,Net-(J2-Pin_1)*%
X129915000Y-71960000D03*
%TD*%
D20*
%TO.P,C8,1*%
%TO.N,Net-(J4-Pin_1)*%
X85151000Y-89281000D03*
%TO.P,C8,2*%
%TO.N,GND*%
X90551000Y-89281000D03*
%TD*%
D13*
%TO.P,J3,1,Pin_1*%
%TO.N,Net-(J3-Pin_1)*%
X118775000Y-119380000D03*
D12*
%TO.P,J3,2,Pin_2*%
%TO.N,GND*%
X114895000Y-119380000D03*
%TD*%
D32*
%TO.P,C12,1*%
%TO.N,Net-(J1-Pin_1)*%
X134385000Y-83355000D03*
%TO.P,C12,2*%
%TO.N,GND*%
X134385000Y-81455000D03*
%TD*%
D35*
%TO.N,GND*%
X93091000Y-100711000D03*
X123190000Y-115570000D03*
X155975000Y-83675000D03*
X127375000Y-68755000D03*
X93091000Y-105791000D03*
X149625000Y-84945000D03*
%TO.N,Net-(J1-Pin_1)*%
X107950000Y-82550000D03*
X93091000Y-85471000D03*
X131845000Y-96375000D03*
X107061000Y-77851000D03*
X129540000Y-81280000D03*
%TO.N,Net-(D3-K)*%
X94361000Y-108331000D03*
X101981000Y-112141000D03*
%TO.N,Net-(U5-FB)*%
X140735000Y-84945000D03*
X149164844Y-83344000D03*
%TD*%
D36*
%TO.N,GND*%
X130244000Y-91466000D02*
X130244000Y-97038156D01*
X104230500Y-66421000D02*
X108662000Y-70852500D01*
X117354000Y-61274000D02*
X115685000Y-62943000D01*
X98051000Y-80391000D02*
X100476000Y-82816000D01*
X111990000Y-119380000D02*
X108615000Y-116005000D01*
X133660000Y-81455000D02*
X130067500Y-77862500D01*
X123635000Y-63675000D02*
X123635000Y-61553680D01*
X124835000Y-71295000D02*
X127375000Y-68755000D01*
X101028500Y-63219000D02*
X95531000Y-63219000D01*
X91821000Y-107061000D02*
X93091000Y-105791000D01*
X134385000Y-87325000D02*
X130244000Y-91466000D01*
X132759000Y-83820000D02*
X132759000Y-82356000D01*
X123420000Y-107950000D02*
X123420000Y-115340000D01*
X154844000Y-101316000D02*
X154844000Y-95036000D01*
X124820000Y-83820000D02*
X132759000Y-83820000D01*
X131181844Y-97976000D02*
X132564844Y-97976000D01*
X100476000Y-73666000D02*
X100476000Y-82816000D01*
X100281000Y-107708500D02*
X100281000Y-103251000D01*
X132564844Y-97976000D02*
X133721844Y-96819000D01*
X160291000Y-84838688D02*
X159623688Y-85506000D01*
X114270000Y-107950000D02*
X123420000Y-107950000D01*
X131181844Y-98031844D02*
X131181844Y-97976000D01*
X90551000Y-107061000D02*
X91821000Y-107061000D01*
X157406312Y-85506000D02*
X155975000Y-84074688D01*
X104636000Y-82816000D02*
X100476000Y-82816000D01*
X155975000Y-84074688D02*
X155975000Y-83675000D01*
X143106000Y-109956000D02*
X140955000Y-107805000D01*
X123565000Y-82565000D02*
X115415000Y-82565000D01*
X133660000Y-81455000D02*
X134385000Y-81455000D01*
X93091000Y-100711000D02*
X90551000Y-98171000D01*
X114895000Y-119380000D02*
X111990000Y-119380000D01*
X156323000Y-102795000D02*
X154844000Y-101316000D01*
X123420000Y-115340000D02*
X123190000Y-115570000D01*
X159623688Y-85506000D02*
X157406312Y-85506000D01*
X134385000Y-87325000D02*
X132759000Y-85699000D01*
X90551000Y-70231000D02*
X82931000Y-70231000D01*
X129557000Y-77862500D02*
X129915000Y-77862500D01*
X132759000Y-85699000D02*
X132759000Y-83820000D01*
X90551000Y-80391000D02*
X98051000Y-80391000D01*
X157245000Y-102795000D02*
X156323000Y-102795000D01*
X95531000Y-63219000D02*
X90551000Y-68199000D01*
X153755000Y-81455000D02*
X155975000Y-83675000D01*
X108662000Y-70852500D02*
X108662000Y-78790000D01*
X90551000Y-89281000D02*
X90551000Y-80391000D01*
X100476000Y-93906000D02*
X100281000Y-94101000D01*
X154844000Y-95036000D02*
X157245000Y-92635000D01*
X130244000Y-97038156D02*
X131181844Y-97976000D01*
X108662000Y-78790000D02*
X104636000Y-82816000D01*
X114270000Y-118755000D02*
X114895000Y-119380000D01*
X123855000Y-99220000D02*
X123855000Y-107515000D01*
X134591000Y-81249000D02*
X139465000Y-81249000D01*
X116235000Y-99220000D02*
X116235000Y-100765000D01*
X147945000Y-86625000D02*
X149625000Y-84945000D01*
X116235000Y-100765000D02*
X123420000Y-107950000D01*
X152205320Y-109956000D02*
X143106000Y-109956000D01*
X123355320Y-61274000D02*
X117354000Y-61274000D01*
X97076000Y-73666000D02*
X93641000Y-70231000D01*
X114270000Y-111350000D02*
X114270000Y-118755000D01*
X157245000Y-102795000D02*
X157245000Y-104916320D01*
X104230500Y-66421000D02*
X101028500Y-63219000D01*
X90551000Y-68199000D02*
X90551000Y-70231000D01*
X99658500Y-108331000D02*
X100281000Y-107708500D01*
X157245000Y-104916320D02*
X152205320Y-109956000D01*
X160291000Y-82693500D02*
X160291000Y-84838688D01*
X90551000Y-98171000D02*
X90551000Y-89281000D01*
X140955000Y-107805000D02*
X131181844Y-98031844D01*
X103681000Y-103251000D02*
X103681000Y-97501000D01*
X93641000Y-70231000D02*
X90551000Y-70231000D01*
X152165000Y-81455000D02*
X153755000Y-81455000D01*
X123855000Y-107515000D02*
X123420000Y-107950000D01*
X115415000Y-74965000D02*
X115685000Y-74695000D01*
X123635000Y-61553680D02*
X123355320Y-61274000D01*
X132759000Y-82356000D02*
X133660000Y-81455000D01*
X130067500Y-77862500D02*
X129915000Y-77862500D01*
X103681000Y-97501000D02*
X100281000Y-94101000D01*
X115415000Y-82565000D02*
X115415000Y-74965000D01*
X100476000Y-82816000D02*
X100476000Y-93906000D01*
X100281000Y-103251000D02*
X100281000Y-94101000D01*
X115685000Y-62943000D02*
X115685000Y-74695000D01*
X124835000Y-74695000D02*
X115685000Y-74695000D01*
X134385000Y-81455000D02*
X134591000Y-81249000D01*
X147945000Y-88755000D02*
X147945000Y-86625000D01*
X158515000Y-80917500D02*
X160291000Y-82693500D01*
X123565000Y-82565000D02*
X124820000Y-83820000D01*
%TO.N,Net-(J1-Pin_1)*%
X87802000Y-83042000D02*
X87802000Y-95520000D01*
X115415000Y-87030312D02*
X115415000Y-87965000D01*
X107061000Y-77851000D02*
X107061000Y-76851000D01*
X124835000Y-78095000D02*
X126355000Y-78095000D01*
X131845000Y-95265000D02*
X134385000Y-92725000D01*
X138355000Y-87325000D02*
X134385000Y-83355000D01*
X114270000Y-104550000D02*
X107950000Y-98230000D01*
X141145000Y-88755000D02*
X138355000Y-88755000D01*
X96881000Y-103251000D02*
X90231000Y-103251000D01*
X96881000Y-101935688D02*
X93980000Y-99034688D01*
X124835000Y-78095000D02*
X124350312Y-78095000D01*
X115415000Y-87965000D02*
X115415000Y-93000000D01*
X93980000Y-86360000D02*
X93091000Y-85471000D01*
X107061000Y-76851000D02*
X103876000Y-73666000D01*
X126355000Y-78095000D02*
X129540000Y-81280000D01*
X93980000Y-99034688D02*
X93980000Y-86360000D01*
X138355000Y-88755000D02*
X138355000Y-87325000D01*
X114270000Y-95785000D02*
X116235000Y-93820000D01*
X131845000Y-96375000D02*
X131845000Y-95265000D01*
X115415000Y-93000000D02*
X116235000Y-93820000D01*
X87802000Y-95520000D02*
X85151000Y-98171000D01*
X96881000Y-103251000D02*
X96881000Y-101935688D01*
X85151000Y-80391000D02*
X87802000Y-83042000D01*
X138355000Y-88755000D02*
X134385000Y-92725000D01*
X90231000Y-103251000D02*
X85151000Y-98171000D01*
X107950000Y-98230000D02*
X107950000Y-82550000D01*
X114270000Y-104550000D02*
X114270000Y-95785000D01*
%TO.N,Net-(J2-Pin_1)*%
X122535000Y-72995000D02*
X124835000Y-72995000D01*
X121634000Y-72094000D02*
X122535000Y-72995000D01*
X124835000Y-72995000D02*
X129371000Y-72995000D01*
X129371000Y-72995000D02*
X129915000Y-72451000D01*
X121634000Y-65554000D02*
X121634000Y-72094000D01*
X119755000Y-63675000D02*
X121634000Y-65554000D01*
X122156000Y-66076000D02*
X119755000Y-63675000D01*
%TO.N,Net-(J3-Pin_1)*%
X129021000Y-98986000D02*
X129021000Y-113583688D01*
X116665000Y-109650000D02*
X114270000Y-109650000D01*
X118315312Y-119380000D02*
X117505000Y-118569688D01*
X129021000Y-113583688D02*
X123224688Y-119380000D01*
X123855000Y-93820000D02*
X129021000Y-98986000D01*
X118775000Y-119380000D02*
X118315312Y-119380000D01*
X111970000Y-109650000D02*
X108615000Y-106295000D01*
X123224688Y-119380000D02*
X118775000Y-119380000D01*
X108615000Y-106295000D02*
X108615000Y-104606000D01*
X114270000Y-109650000D02*
X111970000Y-109650000D01*
X117505000Y-110490000D02*
X116665000Y-109650000D01*
X117505000Y-118569688D02*
X117505000Y-110490000D01*
%TO.N,Net-(J4-Pin_1)*%
X98951688Y-111760000D02*
X86360000Y-111760000D01*
X85151000Y-89281000D02*
X82500000Y-91932000D01*
X82931000Y-74111000D02*
X85687000Y-76867000D01*
X85151000Y-110551000D02*
X85151000Y-107061000D01*
X101981000Y-108192000D02*
X102120000Y-108331000D01*
X85687000Y-76867000D02*
X97875000Y-76867000D01*
X82500000Y-74542000D02*
X82500000Y-86630000D01*
X101981000Y-103251000D02*
X101981000Y-108192000D01*
X82500000Y-86630000D02*
X85151000Y-89281000D01*
X102120000Y-108331000D02*
X102120000Y-108591688D01*
X102120000Y-108591688D02*
X98951688Y-111760000D01*
X86360000Y-111760000D02*
X85151000Y-110551000D01*
X98776000Y-73666000D02*
X98776000Y-66560000D01*
X98776000Y-75966000D02*
X98776000Y-73666000D01*
X82500000Y-91932000D02*
X82500000Y-104410000D01*
X97875000Y-76867000D02*
X98776000Y-75966000D01*
X82931000Y-74111000D02*
X82500000Y-74542000D01*
X98776000Y-66560000D02*
X98637000Y-66421000D01*
X82500000Y-104410000D02*
X85151000Y-107061000D01*
%TO.N,Net-(J5-Pin_1)*%
X145055400Y-80324000D02*
X143275000Y-80324000D01*
X157245000Y-88755000D02*
X150846000Y-95154000D01*
X151440000Y-83355000D02*
X149044000Y-80959000D01*
X152165000Y-83675000D02*
X157245000Y-88755000D01*
X146857600Y-80959000D02*
X146274000Y-81542600D01*
X150846000Y-105314000D02*
X148355000Y-107805000D01*
X150846000Y-95154000D02*
X150846000Y-105314000D01*
X149044000Y-80959000D02*
X146857600Y-80959000D01*
X152165000Y-83355000D02*
X151440000Y-83355000D01*
X152165000Y-83355000D02*
X152165000Y-83675000D01*
X146274000Y-81542600D02*
X145055400Y-80324000D01*
%TO.N,Net-(U5-VC)*%
X138911312Y-92304000D02*
X135761000Y-95454312D01*
X142845000Y-88755000D02*
X142845000Y-91725000D01*
X134908638Y-98420000D02*
X134385000Y-98420000D01*
X142845000Y-91725000D02*
X142266000Y-92304000D01*
X142266000Y-92304000D02*
X138911312Y-92304000D01*
X135761000Y-97567638D02*
X134908638Y-98420000D01*
X135761000Y-95454312D02*
X135761000Y-97567638D01*
%TO.N,Net-(D1-K)*%
X131516000Y-73286500D02*
X131516000Y-71787844D01*
X128407500Y-76395000D02*
X124835000Y-76395000D01*
X131516000Y-71787844D02*
X130557156Y-70829000D01*
X130557156Y-70829000D02*
X129915000Y-70829000D01*
X129915000Y-74887500D02*
X131516000Y-73286500D01*
X129915000Y-74887500D02*
X128407500Y-76395000D01*
%TO.N,Net-(D2-K)*%
X107972844Y-102984000D02*
X109257156Y-102984000D01*
X107014000Y-111429000D02*
X107014000Y-103942844D01*
X110451578Y-104731578D02*
X111970000Y-106250000D01*
X109257156Y-102984000D02*
X110451578Y-104178422D01*
X107014000Y-103942844D02*
X107972844Y-102984000D01*
X111970000Y-106250000D02*
X114270000Y-106250000D01*
X110451578Y-104178422D02*
X110451578Y-104731578D01*
X108615000Y-113030000D02*
X107014000Y-111429000D01*
%TO.N,Net-(D3-K)*%
X96683500Y-108331000D02*
X94361000Y-108331000D01*
X103742000Y-110380000D02*
X103742000Y-108331000D01*
X96683500Y-108331000D02*
X98581000Y-106433500D01*
X98581000Y-106433500D02*
X98581000Y-103251000D01*
X101981000Y-112141000D02*
X103742000Y-110380000D01*
%TO.N,Net-(D4-K)*%
X102176000Y-67341500D02*
X101255500Y-66421000D01*
X101255500Y-66421000D02*
X99654500Y-64820000D01*
X102176000Y-73666000D02*
X102176000Y-67341500D01*
X99654500Y-64820000D02*
X97973844Y-64820000D01*
X97015000Y-65778844D02*
X97015000Y-66421000D01*
X97973844Y-64820000D02*
X97015000Y-65778844D01*
%TO.N,Net-(D5-K)*%
X141877000Y-78723000D02*
X140735000Y-79865000D01*
X153345500Y-78723000D02*
X141877000Y-78723000D01*
X140735000Y-80048156D02*
X142632844Y-81946000D01*
X144545000Y-88755000D02*
X144545000Y-83216000D01*
X140735000Y-79865000D02*
X140735000Y-80048156D01*
X142632844Y-81946000D02*
X143275000Y-81946000D01*
X144545000Y-83216000D02*
X143275000Y-81946000D01*
X158515000Y-83892500D02*
X153345500Y-78723000D01*
X144545000Y-97905000D02*
X144545000Y-88755000D01*
%TO.N,Net-(U5-FB)*%
X146245000Y-84228400D02*
X147896000Y-82577400D01*
X139465000Y-83675000D02*
X139465000Y-82871000D01*
X147129400Y-83344000D02*
X149164844Y-83344000D01*
X140735000Y-84945000D02*
X139465000Y-83675000D01*
X146245000Y-84228400D02*
X147129400Y-83344000D01*
X146245000Y-88755000D02*
X146245000Y-84228400D01*
%TD*%
M02*
